<svg width="103" height="127" viewBox="0 0 103 127" fill="none" xmlns="http://www.w3.org/2000/svg">
<g id="Layer_1" clip-path="url(#clip0_59_55)">
<path id="Vector" d="M19.2355 89.7642C13.0992 83.951 7.64903 77.6258 4.34657 69.7923C-8.26637 39.9004 7.06888 4.83395 44.0375 0.429995C65.972 -2.17935 83.8232 6.48544 94.9188 25.483C105.568 43.7209 104.341 62.2615 92.1741 79.7947C89.5857 83.5271 86.2386 86.5768 82.6182 89.3293C80.504 87.9365 79.2154 85.7896 77.6534 83.9124C74.6298 80.2847 71.2326 76.9432 68.7278 72.9025C80.716 62.6248 83.0812 47.1174 74.1947 34.1588C67.4169 24.2774 57.543 20.2973 45.7166 22.2516C34.6935 24.0682 27.1124 30.6081 23.4752 41.073C19.4141 52.782 22.2033 62.6303 33.5165 72.9246C42.6261 82.0518 53.4037 89.1862 64.053 97.5261H40.8968C28.6241 97.5647 28.6241 97.5647 19.2355 89.7642Z" fill="#02ACEE"/>
<path id="Vector_2" d="M19.2351 89.764C28.6237 97.5645 28.6237 97.5645 40.8964 97.5645H64.047C53.3977 89.2245 42.6201 82.0901 33.5105 72.9629C38.9829 66.5001 44.4945 60.0704 49.9 53.558C51.144 52.0607 51.6238 53.0791 52.3378 53.9048L68.7385 72.9409C71.2321 76.9871 74.6294 80.3286 77.6641 83.9508C79.2261 85.828 80.5147 87.9749 82.629 89.3677L92.0343 100.631H9.86328L19.2351 89.764Z" fill="#252122"/>
<path id="Vector_3" d="M39.2904 123.84C40.6795 124.682 42.0072 124.44 43.2846 124.517C43.9485 124.555 44.3334 124.754 44.2943 125.475C44.2553 126.196 43.7922 126.124 43.3292 126.141C42.8709 126.213 42.4041 126.213 41.9458 126.141C37.483 124.699 33.0592 125.915 28.6132 126.234C23.6316 126.598 18.8063 125.877 14.5164 123.097C9.2559 119.689 9.20009 114.465 14.6001 111.256C21.7349 107.006 29.4165 106.896 37.0479 109.665C45.2147 112.615 46.0794 118.406 39.2904 123.84ZM27.6258 109.632C23.4922 109.632 19.7434 110.408 16.4689 112.791C14.9013 113.936 13.8916 115.368 14.0422 117.432C14.137 118.709 14.6001 119.238 15.9724 118.951C22.4665 117.532 29.2654 118.653 34.9392 122.078C35.2531 122.322 35.6347 122.465 36.0332 122.49C36.4317 122.514 36.8284 122.419 37.1706 122.216C41.427 119.821 41.7394 115.197 37.7284 112.467C34.6603 110.386 31.1458 109.676 27.6258 109.632ZM33.4386 123.944C27.7932 120.223 22.2035 119.194 15.6656 120.873C21.1325 125.089 26.9006 125.133 33.4386 123.944Z" fill="#252122"/>
<path id="Vector_4" d="M80.2099 112.78C78.1459 113.143 76.6174 112.604 74.9606 111.789C68.7573 108.745 62.4034 108.728 56.3006 111.982C51.1516 114.734 51.1628 119.573 56.3006 122.359C62.4369 125.662 68.774 125.463 74.9829 122.557C76.5007 121.747 78.2627 121.503 79.9477 121.869C79.1199 122.896 78.0218 123.678 76.7736 124.131C69.198 127.252 61.6057 127.241 54.1696 123.773C51.4194 122.496 49.1489 120.525 49.188 117.096C49.188 113.793 51.4194 111.943 54.0747 110.661C61.8846 106.862 69.7726 106.95 77.6215 110.606C78.7185 111.004 79.6359 111.775 80.2099 112.78Z" fill="#252122"/>
<path id="Vector_5" d="M90.8644 117.283C90.8644 119.656 90.8086 122.034 90.8644 124.407C90.9146 125.788 90.3066 126.058 89.0347 126.091C87.6233 126.119 87.6289 125.331 87.6289 124.346C87.6289 119.507 87.6735 114.663 87.6289 109.819C87.6289 108.569 88.1142 108.288 89.2634 108.299C90.4126 108.31 90.9369 108.657 90.8811 109.879C90.8086 112.345 90.8644 114.817 90.8644 117.283Z" fill="#252122"/>
</g>
<defs>
<clipPath id="clip0_59_55">
<rect width="102.164" height="126.426" fill="white"/>
</clipPath>
</defs>
</svg>
