<svg xmlns="http://www.w3.org/2000/svg" viewBox="0 0 359.79 359.77"><g id="Layer_2" data-name="Layer 2"><g id="Layer_1-2" data-name="Layer 1"><path d="M10.66,359c-8.22,0-9.88-1.67-9.89-9.91v-4.26c0-4.07,0-8.14,0-12.21,0-5.77,2.39-8.23,7.84-8.23H8.8c2.29,0,3.93-.12,4.49-.69s.43-1.56.4-3.22c0-.48,0-1,0-1.58q0-97.73,0-195.46V91.77c0-2.57,0-4.12-.52-4.67s-2-.61-4.54-.71C3.19,86.16.85,83.8.79,78.48c-.07-6.24,0-12.67,0-18.34,0-6.14,2.29-8.43,8.36-8.44l10.25,0,19.22,0c10.81,0,19.64,0,27.79.11h.17c1.75,0,2.82-.27,3.35-.86s.69-1.59.53-3.18a50.47,50.47,0,0,1,0-8.73c.11-1.49-.08-2.48-.57-3A2.46,2.46,0,0,0,68,35.38a6.85,6.85,0,0,0-.88.06,10.14,10.14,0,0,1-1.1.06,18.56,18.56,0,0,1-2.07-.14c-4.13-.48-6.57-2.93-6.69-6.73-.23-7.48-.23-14.35,0-21C57.4,3.23,59.78,1,64.51.78q.7,0,1.41,0H292.07c8.94,0,10.63,1.72,10.64,10.81,0,1.32,0,2.65,0,4,0,3.73,0,7.59,0,11.39-.11,5.85-2.58,8.32-8.56,8.52-2.35.08-3.78.13-4.25.62s-.47,1.91-.47,4.28c0,.81,0,1.62,0,2.44a50.25,50.25,0,0,1-.08,5.48,3.61,3.61,0,0,0,.49,2.74c.47.51,1.38.74,2.87.74h.1c8,0,16.48-.08,27.5-.08H349c8.36,0,10.06,1.7,10.06,10.12v4.53c0,3.91,0,8,0,12-.05,5.55-2.38,7.9-8,8.1-2.43.09-3.9.14-4.39.66s-.5,2-.5,4.52V319.1c0,2.47,0,4,.5,4.5s1.95.6,4.37.73c5.82.32,8,2.62,8,8.49,0,6.45,0,12.79,0,17.59,0,6.43-2.18,8.6-8.56,8.6H10.66ZM17,346H340.05c1.36,0,2.73,0,4.09,0,1,0,1.4-.18,1.51-.55a12.43,12.43,0,0,0,.09-7.29c-.24-.73-.67-1-1.6-1a9.63,9.63,0,0,0-1.29.11,12.69,12.69,0,0,1-1.35.11q-59.76-.06-119.53,0H18.62c-2.47,0-4,0-4.45.49s-.47,2-.43,4.59v.49c0,.34,0,.69,0,1a2.18,2.18,0,0,0,.45,1.6,2.31,2.31,0,0,0,1.69.51H17ZM31.14,86.4c-2.17,0-3.6,0-4,.43s-.43,1.82-.43,3.92c0,29.2,0,155.91,0,155.91,0,24.2,0,49.23,0,73.84,0,1.63.1,2.69.66,3.25a3.2,3.2,0,0,0,2.29.63h.22c3.67-.09,7.68-.13,12.27-.13,4.08,0,8.16,0,12.24.06l2.46,0c1.87,0,2.74-.64,3.37-2.46,3.12-9,6.41-18,9.58-26.81l.12-.32a10.82,10.82,0,0,0,.55-3.78V261.6c0-56.36,0-114.64,0-172A3.71,3.71,0,0,0,69.77,87a3.62,3.62,0,0,0-2.57-.65h-.13c-4.7.05-9.67.07-16.1.07l-18.24,0Zm148.33,136,40.5,0c6.59,0,8.82,2.21,8.82,8.76q0,21.36,0,42.74v24.76q0,11.52,0,23.06c0,.15,0,.31,0,.46,0,1.32.07,1.73.81,1.92a8.1,8.1,0,0,0,1.78.27,2.29,2.29,0,0,0,1.75-.66,6.16,6.16,0,0,0,1.12-2.2l0-.16q2.13-5.88,4.24-11.78Q241,302.8,243.44,296a14.86,14.86,0,0,0,.81-5.25V271.31c0-26.74,0-54.4.06-81.59,0-1.49-.22-2.42-.72-2.92s-1.42-.72-3-.72h-.12c-8.68,0-18,.08-30.09.08l-30.54,0H164.34l-15.52,0c-11.74,0-20.75,0-29.22-.11h-.15c-1.67,0-2.65.24-3.19.78s-.8,1.58-.79,3.32c.1,26.71.09,53.87.08,80.13v20.17a15.92,15.92,0,0,0,.83,5.63l.26.72c2.89,7.94,5.89,16.16,8.69,24.3.81,2.33,1.73,3.24,3.28,3.24a4.75,4.75,0,0,0,1-.1c1.71-.32,1.68-1.15,1.48-2.85a10.53,10.53,0,0,1-.1-1.24c.05-22.14.05-44.66.05-66.43V231.47c0-6.94,2.07-9.06,8.88-9.06Zm9.69,13a3.34,3.34,0,0,0-2.43.64,3.74,3.74,0,0,0-.64,2.66c.1,10,.09,20.09.07,29.88,0,3.62,0,7.24,0,10.86s0,7.27,0,10.91c0,10,0,20.39-.06,30.58,0,1.5.19,2.38.65,2.85a3.21,3.21,0,0,0,2.3.63h.23c3.61-.09,7.3-.13,11.27-.13,3.73,0,7.63,0,11.93.11h.2a3.53,3.53,0,0,0,2.55-.68,3.71,3.71,0,0,0,.7-2.65c-.07-26.77-.07-54.43,0-82.22a3.9,3.9,0,0,0-.7-2.78,3.3,3.3,0,0,0-2.4-.66h-.22c-3.82.07-7.7.11-11.53.11s-7.79,0-11.67-.12Zm-30.27,88.89c3.9,0,7.78,0,11.54.11h.22a3.29,3.29,0,0,0,2.39-.64,3.9,3.9,0,0,0,.66-2.75c-.1-10.07-.08-20.31-.07-30.21,0-3.63,0-7.27,0-10.9s0-7.26,0-10.88c0-9.91,0-20.16.07-30.24,0-1.44-.19-2.29-.65-2.76a3.27,3.27,0,0,0-2.34-.62h-.25c-3.69.08-7.54.13-11.44.13s-7.72,0-11.76-.12H147a3.44,3.44,0,0,0-2.49.67,3.69,3.69,0,0,0-.69,2.67c.07,26.53.07,54.19,0,82.23a3.82,3.82,0,0,0,.71,2.74,3.41,3.41,0,0,0,2.47.68h.19C151.18,324.28,155.1,324.25,158.89,324.25ZM292.83,86.33a3.85,3.85,0,0,0-2.75.71c-.52.51-.74,1.45-.74,3,.07,55.15.07,111.23.06,165.46v34.73a13,13,0,0,0,.57,4.52l.62,1.7c3,8.2,6.06,16.68,9,25.09.7,2,1.7,2.76,3.82,2.76h.11q5.37-.06,10.74-.06l14.71,0c2,0,3.39,0,3.8-.42s.4-1.77.4-3.84c0-31.06,0-139.1,0-139.1,0-29.71,0-60.43.07-90.64,0-1.71-.23-2.71-.77-3.25a4,4,0,0,0-2.85-.74h-.23c-5.78.1-11.81.15-17.91.15-5.91,0-12.1,0-18.4-.14ZM258.12,300.59c-2.1,0-3.11.79-3.87,3-2.25,6.62-4.4,12.6-6.57,18.29-.52,1.37-.4,1.86-.29,2s.57.43,1.89.43h.25c2.11,0,4.39-.06,7.17-.06l5.07,0h15c2.25,0,4.5,0,6.75,0,.81,0,2.69,0,2.93-.36s-.34-1.94-.59-2.63c-.91-2.6-1.85-5.18-2.79-7.77-1.25-3.44-2.54-7-3.75-10.52-.6-1.77-1.44-2.4-3.19-2.4H276c-3.57.07-6.51.11-9.24.11-3,0-5.74,0-8.36-.13Zm-174.88.05a2.34,2.34,0,0,0-2.57,1.82l-.6,1.71C78,310,75.91,316,73.71,321.8c-.37,1-.46,1.72-.23,2s.9.49,2,.49h.15q3.61,0,7.23,0h20c2.62,0,5.25,0,7.87,0h0c1.26,0,1.59-.23,1.68-.36s.21-.47-.17-1.5c-2.16-5.86-4.41-12.11-7.1-19.68-.56-1.56-1.31-2.14-2.77-2.14-3.13,0-6.2.05-9.28.05q-4.92,0-9.85-.05l-.05-.75Zm5-265.18c-2.41,0-3.87,0-4.35.49s-.48,1.94-.48,4.36V282.43c0,.38,0,.77,0,1.15,0,.73,0,1.5,0,2.26a2.33,2.33,0,0,0,.44,1.78,2.42,2.42,0,0,0,1.8.52h.14c1.54,0,3.07,0,4.6,0H94l3.65,0c2.5,0,4,0,4.44-.47s.47-1.87.47-4.21V253.16q0-35.57,0-71.13c0-6.19,2.07-8.38,7.9-8.38l69.42,0,69.42,0c5.72,0,7.86,2.17,7.89,8q0,9.69,0,19.38v82.42c0,2.33,0,3.74.47,4.2s1.95.46,4.37.47h9.73c2.32,0,3.72,0,4.18-.46s.45-1.83.45-4.12q0-121.63,0-243.26c0-2.41,0-3.86-.48-4.34s-1.94-.49-4.36-.49H88.2ZM332.08,73.32c4,0,7.24.05,10.25.17h.42c3.06,0,3.36-1.22,3.39-4.46,0-1.69-.12-3-.8-3.64a4.08,4.08,0,0,0-2.93-.78h-.17c-6.24.08-13.1.12-21.58.12l-12.87,0-12.87,0h-.18c-2.61,0-4.19,0-4.75.51s-.58,1.93-.65,4.33v.53a3.69,3.69,0,0,0,.62,2.72,3.61,3.61,0,0,0,2.65.68h.33c3.1-.07,6.47-.1,10.6-.1l7.05,0,7,0c2.41,0,4.82,0,7.23,0S329.67,73.32,332.08,73.32ZM16.64,64.64a3.37,3.37,0,0,0-2.36.64c-.57.59-.55,1.69-.53,2.85,0,.47,0,1,0,1.41-.09,1.57,0,2.66.54,3.26a3.06,3.06,0,0,0,2.29.67h.25c3.09-.08,6.44-.12,10.54-.12q3.62,0,7.23,0l7.22,0H56.21c4.5,0,8.15,0,11.48.06h.12a3,3,0,0,0,2.21-.6,2.71,2.71,0,0,0,.39-2.06,19.48,19.48,0,0,1,0-3.5,2.52,2.52,0,0,0-.39-2,3.2,3.2,0,0,0-2.39-.63q-13.74,0-27.41.06c-8.69,0-16.37,0-23.49-.09l-.08-.75ZM75.39,13.72c-1.32,0-2.54,0-3.71.06-.71,0-1.16.17-1.22.38a13.4,13.4,0,0,0,0,7.66c.17.53.45.83,1.4.83a11.05,11.05,0,0,0,1.25-.1,12,12,0,0,1,1.31-.11q35.85.06,71.7,0H285c1.11,0,2.23,0,3.34-.05a1.26,1.26,0,0,0,1.33-.88c.92-2.29.9-4.32-.05-5.72s-2.74-2.11-5.1-2.11H75.39Z" fill="#1cc0e4"/><path d="M65.91,1.5H292.07c8.51,0,9.88,1.39,9.89,10.06,0,5.12.07,10.23,0,15.34-.1,5.49-2.29,7.6-7.83,7.79s-5.45.19-5.45,5.65c0,2.62.18,5.25-.05,7.85-.28,3.22.87,4.3,4.11,4.3h.11q13.77-.09,27.55-.08l28.58,0c8,0,9.31,1.35,9.31,9.37,0,5.49,0,11,0,16.47-.05,5.17-2.08,7.17-7.29,7.36-5.6.2-5.61.2-5.61,5.93V319.1c0,5.68,0,5.68,5.58,6,5.39.29,7.29,2.27,7.33,7.74,0,5.86,0,11.73,0,17.59s-1.83,7.84-7.81,7.85H10.66c-7.76,0-9.13-1.38-9.14-9.16,0-5.49,0-11,0-16.46.05-5.23,2-7.49,7.09-7.49H8.8c6.43,0,5.63-1,5.63-6.24q0-113.58,0-227.15c0-5.89,0-5.89-5.78-6.13-5-.21-7-2.23-7.11-7.16-.06-6.12,0-12.23,0-18.34,0-5.75,1.91-7.68,7.61-7.69,9.81,0,19.63,0,29.45,0,9.27,0,18.53,0,27.8.11h.18c3.68,0,5-1.14,4.63-4.87a49.4,49.4,0,0,1,0-8.6c.21-2.85-.59-4.42-3.21-4.42a8.37,8.37,0,0,0-1,.06,8.55,8.55,0,0,1-1,.06,16.33,16.33,0,0,1-2-.14c-3.58-.41-5.92-2.41-6-6-.21-7-.24-14,0-20.94.14-4.15,2.39-5.95,6.54-6.13.46,0,.91,0,1.37,0m5.9,21.9c.85,0,1.79-.21,2.55-.21h0q35.85.06,71.7,0H285c1.12,0,2.24,0,3.36-.05a2,2,0,0,0,2-1.35C292.4,16.66,290,13,284.49,13H75.39c-1.25,0-2.5,0-3.74.06-.77,0-1.71.18-1.91.93a14.23,14.23,0,0,0,0,8.1,1.94,1.94,0,0,0,2.12,1.34m13.8,265.49h.16c1.53,0,3,0,4.58,0l7.29,0h.1c5.58,0,5.58,0,5.58-5.42q0-50.71,0-101.42c0-5.79,1.71-7.63,7.15-7.63l69.28,0,69.56,0c5.33,0,7.11,1.84,7.14,7.27,0,9.1,0,18.21,0,27.31v74.48c0,5.41,0,5.41,5.59,5.42h9.73c5.37,0,5.38,0,5.38-5.33q0-121.62,0-243.25c0-5.56,0-5.58-5.59-5.58H88.2c-5.57,0-5.58,0-5.58,5.6q0,60.81,0,121.62v120.5c0,1.13,0,2.25,0,3.37-.1,2.18.88,3.09,3,3.09M320.68,64c-8.56,0-17.12,0-25.67,0h-.27c-6.17,0-6,0-6.16,6.1-.1,3.28,1.1,4.17,4,4.17h.34c3.54-.08,7.07-.1,10.6-.1,4.7,0,9.39,0,14.08,0s9.64-.08,14.46-.08c3.41,0,6.82,0,10.22.17h.45c3.79,0,4.11-2,4.14-5.2,0-3.38-.53-5.18-4.48-5.18h-.18q-10.77.14-21.55.12M16.56,74.22h.27c3.51-.09,7-.12,10.54-.12,4.81,0,9.63,0,14.44,0h.07l14.3,0c3.83,0,7.67,0,11.5.06h.13c2.49,0,3.58-.92,3.34-3.48a18.85,18.85,0,0,1,0-3.36c.24-2.67-1.08-3.42-3.53-3.42h0Q53.89,64,40.19,64q-11.73,0-23.47-.09h-.08c-4.48,0-3.51,3-3.66,5.61s0,4.72,3.58,4.72m294.87,11.5q-9.19,0-18.39-.14h-.21c-3.28,0-4.25,1.16-4.24,4.51q.14,100.1.06,200.19a13.68,13.68,0,0,0,.62,4.78c3.24,8.91,6.48,17.81,9.56,26.77.81,2.38,2.11,3.27,4.53,3.27h.12q5.34-.06,10.68-.06l12.77,0h2c4.94,0,4.95,0,4.95-5q0-57.24,0-114.5,0-57.62.06-115.24c0-3.46-.9-4.74-4.37-4.74h-.24q-8.94.15-17.9.15M51,85.67l-18.24,0H31.14c-5.21,0-5.22,0-5.22,5.1q0,57.26,0,114.5V226.2q0,47.16,0,94.3c0,2.82.27,4.63,3.7,4.63h.24C33.91,325,38,325,42.1,325c4.88,0,9.77.05,14.66.08h.06c2.18,0,3.31-.9,4-3C64,313.05,67.28,304,70.54,295a11.66,11.66,0,0,0,.6-4q0-100.66,0-201.31c0-3.1-1.07-4.05-4-4.05h-.14q-8,.08-16.09.07M128.6,325.1a6.4,6.4,0,0,0,1.1-.11c3.11-.58,2-3.08,2-4.83q.1-44.34.06-88.69c0-6.48,1.76-8.31,8.13-8.31l39.86,0,40.23,0c6.2,0,8.07,1.88,8.07,8q0,31.05,0,62.12,0,14.22,0,28.44c0,1.21-.25,2.7,1.37,3.1a8.24,8.24,0,0,0,2,.3,3.06,3.06,0,0,0,2.29-.89,7.08,7.08,0,0,0,1.34-2.62c3.05-8.44,6.06-16.9,9.12-25.34a16,16,0,0,0,.85-5.51c0-33.68,0-67.37.06-101,0-3.47-1.18-4.4-4.45-4.4h-.12q-15.09.09-30.18.08l-30.45,0-31,0q-14.64,0-29.26-.11h-.16c-3.66,0-4.75,1.12-4.73,4.85.13,33.44.08,66.87.07,100.3a16.83,16.83,0,0,0,.88,5.88c3,8.32,6.06,16.64,8.94,25,.77,2.23,1.8,3.75,4,3.75M159,234.74c-3.92,0-7.83-.05-11.75-.12H147c-2.88,0-3.94,1.08-3.93,4.1q.12,41.1,0,82.22c0,3,1,4.17,3.93,4.17h.2q5.83-.11,11.66-.1c3.84,0,7.68,0,11.51.11h.24c2.94,0,3.82-1.17,3.8-4.15-.13-13.7-.06-27.4-.06-41.1s-.07-27.41.06-41.11c0-2.95-.8-4.14-3.74-4.14h-.27q-5.7.13-11.42.13m30,90.38h.25q5.63-.14,11.25-.13c4,0,7.94.05,11.91.11h.22c2.85,0,4-1,4-4.08q-.1-41.11,0-82.22c0-2.93-.89-4.19-3.85-4.19h-.23q-5.76.1-11.51.11t-11.66-.12h-.27c-2.85,0-3.85,1-3.82,4.06.14,13.57.06,27.15.06,40.73,0,13.83.06,27.66-.05,41.49,0,2.88.67,4.23,3.7,4.23m60.23,0h.26q3.59-.06,7.17-.06l10,0h10.08c2.24,0,4.48,0,6.73,0,4,0,4.32-.37,3-4-2.14-6.11-4.44-12.16-6.54-18.29-.69-2-1.77-2.9-3.9-2.9H276c-3.07.06-6.15.11-9.23.11q-4.15,0-8.33-.13h-.29c-2.56,0-3.77,1.14-4.58,3.5q-3.12,9.19-6.56,18.28c-1,2.7-.22,3.47,2.3,3.47m-173.78,0h.15q3.64,0,7.28,0H103l7.79,0h.08c2.06,0,3-.63,2.13-2.87-2.41-6.54-4.76-13.1-7.1-19.67-.6-1.7-1.55-2.64-3.47-2.64h-.06c-3.07,0-6.14.05-9.21.05q-4.94,0-9.85-.05h-.06A3.07,3.07,0,0,0,80,302.21c-2.28,6.46-4.55,12.92-7,19.33-1,2.76-.05,3.54,2.49,3.54m266,11.51h0q-59.62-.06-119.23,0H18.62c-5.72,0-5.72,0-5.63,5.84,0,.5,0,1,0,1.5,0,2,1,2.87,2.89,2.87H17l2.83,0H340.05c1.37,0,2.74,0,4.11,0,.89,0,1.92-.12,2.21-1.08a13.15,13.15,0,0,0,.09-7.73,2.12,2.12,0,0,0-2.32-1.54c-.88,0-1.84.22-2.64.22M65.91,0,64.47,0c-5.12.23-7.8,2.78-8,7.57-.24,6.67-.24,13.56,0,21,.13,4.15,2.88,6.94,7.36,7.45a19.43,19.43,0,0,0,2.15.15,9.07,9.07,0,0,0,1.19-.07,7.6,7.6,0,0,1,.78,0,1.82,1.82,0,0,1,1.34.37c.19.21.5.8.38,2.44a51.06,51.06,0,0,0,0,8.86,3.68,3.68,0,0,1-.33,2.6c-.38.42-1.32.62-2.8.62h-.16c-8.16-.08-17-.11-27.82-.11l-19.18,0L9.14,51C2.61,51,.06,53.53,0,60.13c0,6-.06,12.14,0,18.36.07,5.73,2.7,8.4,8.55,8.65,1.91.08,3.72.15,4,.48s.31,2.18.31,4.15V121.4q0,98.76,0,197.52c0,.58,0,1.11,0,1.59a7.17,7.17,0,0,1-.18,2.69c-.3.3-1.63.46-4,.46H8.66c-5.93,0-8.57,2.77-8.63,9,0,4.08,0,8.22,0,12.22v4.26c0,8.57,2.1,10.66,10.64,10.66H350.45c6.76,0,9.29-2.54,9.31-9.35,0-4.81,0-11.16,0-17.6,0-6.22-2.57-8.89-8.75-9.22-1.84-.1-3.57-.2-3.86-.5s-.3-2.1-.3-4V91.57c0-1.82,0-3.7.3-4s2.1-.36,3.86-.42c6.07-.22,8.68-2.86,8.74-8.84.05-4,0-8,0-12,0-1.51,0-3,0-4.53,0-8.84-2-10.87-10.81-10.87H320.38c-11.05,0-19.55,0-27.56.08h-.1c-1.53,0-2.1-.27-2.32-.5a3.17,3.17,0,0,1-.29-2.17,51.8,51.8,0,0,0,.08-5.56c0-.81,0-1.62,0-2.42,0-1.64,0-3.49.26-3.76s2.11-.33,3.74-.39c6.39-.22,9.17-3,9.28-9.26.07-3.79.05-7.65,0-11.37,0-1.33,0-2.67,0-4,0-9.51-2-11.56-11.39-11.56H65.91Zm5.21,14.6a2.61,2.61,0,0,1,.58-.07c1.16,0,2.37-.06,3.69-.06h209.1c2.11,0,3.7.63,4.48,1.78s.8,3,0,5c-.12.3-.2.4-.66.41-1,0-2.13.05-3.32.05H146.07c-22.88,0-47.4,0-71.7,0a13,13,0,0,0-1.4.11,10.3,10.3,0,0,1-1.16.1c-.59,0-.62-.1-.69-.31a12.55,12.55,0,0,1,0-7ZM85.61,287.39a1.9,1.9,0,0,1-1.26-.29,1.87,1.87,0,0,1-.23-1.23c0-.78,0-1.56,0-2.3,0-.38,0-.76,0-1.14V40.31c0-1.66,0-3.54.26-3.83s2.17-.27,3.82-.27H271.58c1.66,0,3.54,0,3.83.27s.26,2.16.26,3.81q0,121.64,0,243.25a12.92,12.92,0,0,1-.23,3.6,13.27,13.27,0,0,1-3.65.23h-9.73c-1.74,0-3.53,0-3.85-.26a12.74,12.74,0,0,1-.24-3.66V201.15c0-6.39,0-13,0-19.49,0-6.22-2.53-8.76-8.64-8.76l-69.56,0-69.28,0c-6.3,0-8.65,2.47-8.65,9.13q0,35.22,0,70.45v31c0,1.65,0,3.37-.25,3.67s-2.09.25-3.83.25H90.35c-1.78,0-3.24,0-4.61,0ZM320.68,65.48c8.48,0,15.33,0,21.57-.12h.16a3.59,3.59,0,0,1,2.4.56c.52.53.59,1.87.58,3.11,0,3.26-.35,3.71-2.64,3.71h-.39c-3-.12-6.29-.17-10.28-.17-2.41,0-4.83,0-7.24,0s-4.81,0-7.22,0l-7,0-7,0c-4.14,0-7.52,0-10.63.1h-.31a3.22,3.22,0,0,1-2.11-.45,3.35,3.35,0,0,1-.41-2.18v-.53c.06-1.73.11-3.53.4-3.8s2.24-.31,4.25-.31H295l12.83,0,12.84,0ZM16.56,72.72a2.61,2.61,0,0,1-1.75-.43c-.4-.43-.39-1.61-.33-2.71,0-.5,0-1,0-1.46,0-1,0-2,.32-2.31.15-.16.59-.42,1.82-.42h.07c7.12.06,14.8.09,23.48.09,9.24,0,18.47,0,27.4-.06h0c1.32,0,1.74.24,1.87.38a2.08,2.08,0,0,1,.2,1.4,20.12,20.12,0,0,0,0,3.64,2.21,2.21,0,0,1-.2,1.48c-.1.11-.46.36-1.65.36H67.7c-3.35,0-7-.06-11.52-.06H41.81l-7.21,0q-3.62,0-7.23,0c-4.12,0-7.48,0-10.58.12Zm294.87,14.5c6.11,0,12.14,0,17.93-.15h.21a3.52,3.52,0,0,1,2.32.52c.38.38.56,1.26.55,2.71-.08,30.2-.07,60.9-.07,90.58q0,12.35,0,24.67v23.18q0,45.66,0,91.32a12.92,12.92,0,0,1-.2,3.33,14,14,0,0,1-3.25.18H314.16c-4.2,0-7.6,0-10.7.06h-.1c-1.81,0-2.51-.51-3.11-2.26-2.89-8.43-6-16.93-9-25.16l-.59-1.63a12.17,12.17,0,0,1-.53-4.27V255.79c0-54.31,0-110.47-.06-165.7a3.88,3.88,0,0,1,.52-2.52,3.4,3.4,0,0,1,2.22-.49H293c6.31.09,12.5.14,18.41.14ZM51,87.17c6.44,0,11.41,0,16.1-.07h.13a3.19,3.19,0,0,1,2,.43,3.31,3.31,0,0,1,.45,2.12c-.06,57.33-.06,115.62,0,172V291a9.87,9.87,0,0,1-.51,3.53l-.16.44c-3.16,8.73-6.43,17.76-9.54,26.69-.52,1.5-1.13,2-2.61,2l-2.49,0c-4,0-8.15-.06-12.23-.06-4.61,0-8.63,0-12.31.13h-.21a2.66,2.66,0,0,1-1.76-.41c-.39-.4-.45-1.54-.44-2.72,0-24.71,0-49.83,0-74.12v-71q0-42.3,0-84.6a12.68,12.68,0,0,1,.21-3.39,13.46,13.46,0,0,1,3.51-.21H51ZM128.6,323.6c-1,0-1.78-.45-2.57-2.74-2.8-8.13-5.79-16.34-8.68-24.28l-.27-.75a15.14,15.14,0,0,1-.79-5.37q0-10,0-20.09c0-26.29,0-53.47-.08-80.21,0-1.48.18-2.39.57-2.79s1.25-.56,2.66-.56h.14c8.49.07,17.51.11,29.28.11l15.49,0h45.95c12.17,0,21.48,0,30.19-.08h.11a3.77,3.77,0,0,1,2.45.51,3.62,3.62,0,0,1,.5,2.38c-.08,27.19-.07,54.84-.06,81.57v19.49a14.31,14.31,0,0,1-.76,5q-2.46,6.78-4.88,13.56-2.12,5.9-4.24,11.79l-.06.16a5.93,5.93,0,0,1-.94,1.92,1.59,1.59,0,0,1-1.22.44,7.43,7.43,0,0,1-1.6-.25.92.92,0,0,1-.18-.07,4,4,0,0,1-.06-1.1c0-.16,0-.32,0-.48q0-11.58,0-23.15v-24q0-21.7,0-43.41c0-6.92-2.59-9.5-9.57-9.5l-40.23,0-39.86,0c-7.2,0-9.63,2.48-9.63,9.81s0,14.88,0,22.32c0,21.75,0,44.25-.05,66.37a11.37,11.37,0,0,0,.11,1.32c.21,1.77.11,1.85-.88,2a4.19,4.19,0,0,1-.82.09ZM159,236.24c3.91,0,7.76-.05,11.46-.13h.23a3,3,0,0,1,1.81.4,3.55,3.55,0,0,1,.43,2.22c-.1,10.08-.08,20.33-.07,30.24q0,5.44,0,10.89t0,10.86c0,9.92,0,20.17.07,30.26a3.36,3.36,0,0,1-.45,2.21,3,3,0,0,1-1.85.42h-.21c-3.75-.07-7.63-.11-11.54-.11s-7.72,0-11.68.11H147a2.92,2.92,0,0,1-1.94-.46,3.34,3.34,0,0,1-.49-2.21c.07-28,.07-55.66,0-82.23a3.29,3.29,0,0,1,.47-2.14,2.94,2.94,0,0,1,2-.45h.21c4,.08,8,.12,11.77.12Zm30,87.38a2.86,2.86,0,0,1-1.76-.4,3.62,3.62,0,0,1-.44-2.32c.08-10.19.07-20.55.06-30.57,0-3.64,0-7.29,0-10.93s0-7.22,0-10.83c0-9.8,0-19.94-.07-29.92,0-1.39.22-1.92.43-2.13a2.89,2.89,0,0,1,1.89-.41h.24c3.88.08,7.81.12,11.69.12s7.71,0,11.54-.11h.2a2.78,2.78,0,0,1,1.87.44,3.48,3.48,0,0,1,.48,2.24c-.07,27.84-.07,55.5,0,82.23a3.22,3.22,0,0,1-.48,2.12,3,3,0,0,1-2,.46h-.19c-4.29-.07-8.2-.11-11.94-.11-4,0-7.67,0-11.29.13Zm59-.15a4.05,4.05,0,0,1,.34-1.31c2.17-5.69,4.33-11.69,6.58-18.32.65-1.91,1.39-2.49,3.16-2.49h.24c2.63.09,5.37.13,8.38.13,2.75,0,5.69,0,9.26-.11h.14c1.44,0,2,.4,2.48,1.89,1.21,3.53,2.51,7.09,3.76,10.54.92,2.54,1.88,5.17,2.79,7.75a13.44,13.44,0,0,1,.56,1.89,17.48,17.48,0,0,1-2.2.11c-2.24,0-4.48,0-6.72,0h-15l-5.06,0c-2.8,0-5.09,0-7.2.06h-.23a4.11,4.11,0,0,1-1.24-.13Zm-173.93-.06a3.21,3.21,0,0,1,.31-1.34c2.2-5.86,4.31-11.86,6.36-17.65l.6-1.71a1.62,1.62,0,0,1,1.86-1.32h.05c3.36,0,6.67.05,9.86.05s6.23,0,9.22-.05h0c1,0,1.61.25,2.11,1.64,2.68,7.56,4.94,13.81,7.11,19.69a3,3,0,0,1,.2.77,3.85,3.85,0,0,1-.93.08h-.07l-7.8,0H82.93c-2.85,0-5.16,0-7.29,0H75.5a3.65,3.65,0,0,1-1.39-.17ZM341.5,338.09h0a11.49,11.49,0,0,0,1.44-.12,11,11,0,0,1,1.2-.1c.73,0,.78.17.89.49a11.75,11.75,0,0,1-.07,6.77,4.2,4.2,0,0,1-.84.09c-1.38,0-2.77,0-4.07,0H15.91a1.74,1.74,0,0,1-1.15-.28,1.57,1.57,0,0,1-.24-1.07c0-.35,0-.71,0-1.07v-.47c0-1.77-.06-3.77.22-4.05s2.21-.27,3.91-.27H222.27c36,0,77.84,0,119.23,0Z" fill="#1cc0e4"/><path d="M179.86,158.34c-5.53,0-11.17,0-16.77-.08-4.87-.06-7.35-2.58-7.37-7.52-.05-10.9-.06-22.23,0-33.66,0-5,2.41-7.5,7.31-7.56,5.6-.07,11.3-.1,16.93-.1s11.17,0,16.74.09c5,.06,7.34,2.57,7.38,7.88,0,3.86,0,7.71,0,11.57v4.89c0,1.72,0,3.44,0,5.16,0,3.82,0,7.78,0,11.67-.06,5-2.52,7.52-7.32,7.57C191.19,158.31,185.5,158.34,179.86,158.34Zm.36-13.11c2.8,0,5.38,0,7.91.11h.26a3,3,0,0,0,2.2-.63,3.55,3.55,0,0,0,.63-2.61c-.14-6.42-.14-11.65,0-16.47a3.52,3.52,0,0,0-.63-2.6,2.9,2.9,0,0,0-2.16-.64l-.65,0c-.91.06-1.89.09-3.08.09l-2.4,0c-.79,0-1.59,0-2.38,0l-2.52,0-2.51,0c-1.26,0-2.29,0-3.25-.07h-.44a2.79,2.79,0,0,0-2.05.59,3.11,3.11,0,0,0-.58,2.25c.11,5.64.11,11.43,0,17.21a3.11,3.11,0,0,0,.58,2.25,3.14,3.14,0,0,0,2.28.62h.22C174.77,145.26,177.57,145.23,180.22,145.23Z" fill="#1cc0e4"/><path d="M180,110.17q8.35,0,16.7.09c4.67.06,6.6,2.32,6.64,7.14,0,5.48,0,11,0,16.45s0,11.22,0,16.83c-.05,4.5-2.1,6.77-6.58,6.82q-8.43.09-16.87.09t-16.78-.09c-4.52,0-6.61-2.28-6.63-6.76q-.09-16.83,0-33.65c0-4.53,2-6.77,6.57-6.82q8.47-.1,17-.1m4.72,11.58c-1.59,0-3.18,0-4.76,0h0c-1.67,0-3.33,0-5,0-1.07,0-2.15,0-3.21-.07h-.48c-2.32,0-3.43,1-3.38,3.61q.16,8.58,0,17.18c-.05,2.72,1.12,3.63,3.61,3.63h.23c2.85-.06,5.7-.1,8.54-.1,2.64,0,5.27,0,7.9.11h.28c2.77,0,3.64-1.28,3.58-4-.12-5.48-.16-11,0-16.44.09-2.93-1-4-3.55-4l-.69,0c-1,.07-2,.09-3,.09M180,108.67c-5.64,0-11.35,0-17,.1-5.32.06-8,2.86-8.05,8.31-.06,11.44-.05,22.77,0,33.67,0,5.34,2.83,8.2,8.11,8.25,5.62.06,11.27.09,16.8.09s11.33,0,16.89-.09c5.21-.06,8-2.93,8.06-8.31,0-3.9,0-7.86,0-11.7,0-1.71,0-3.42,0-5.14s0-3.25,0-4.87c0-3.8,0-7.73,0-11.59,0-5.74-2.7-8.56-8.12-8.63s-11.18-.09-16.72-.09Zm4.72,14.58c1.2,0,2.2,0,3.13-.09l.59,0a2.34,2.34,0,0,1,1.63.41,3,3,0,0,1,.42,2.06c-.15,4.84-.15,10.09,0,16.51a3.2,3.2,0,0,1-.41,2.07,2.65,2.65,0,0,1-1.67.4h-.24c-2.53-.08-5.13-.11-7.94-.11-2.65,0-5.45,0-8.57.1h-.2a2.61,2.61,0,0,1-1.74-.4,2.49,2.49,0,0,1-.37-1.7c.11-5.79.11-11.59,0-17.24a2.55,2.55,0,0,1,.37-1.72,2.36,2.36,0,0,1,1.51-.36h.4c1,0,2,.07,3.29.07l2.52,0,2.48,0h0c.84,0,1.62,0,2.4,0l2.41,0Z" fill="#1cc0e4"/><path d="M179.84,99.25c-5.6,0-11.3,0-16.94-.08-4.67,0-7.15-2.57-7.18-7.3-.06-11.62-.06-23.06,0-34,0-4.75,2.3-7.2,6.77-7.29,5.87-.11,11.79-.16,17.59-.16s11.51.05,17.17.16c4.6.09,6.76,2.51,6.82,7.63,0,3.95,0,8,0,11.83,0,1.66,0,3.33,0,5s0,3.42,0,5.12c0,3.84,0,7.8,0,11.71-.06,4.74-2.54,7.26-7.15,7.31C191.28,99.22,185.53,99.25,179.84,99.25Zm-1.68-13.07c3.6,0,7.2,0,10.8,0h0a2.39,2.39,0,0,0,1.71-.5,2.32,2.32,0,0,0,.49-1.7v-.17c0-5.94,0-12.09,0-18.14a2.54,2.54,0,0,0-.51-1.86,2.34,2.34,0,0,0-1.69-.5h-.18c-1.16,0-2.31,0-3.47,0H174.62c-1.27,0-2.53,0-3.79,0h-.11a2.18,2.18,0,0,0-1.61.48,2.31,2.31,0,0,0-.49,1.68c0,3.62,0,7.24,0,10.86v7.82c0,1.42.58,2,2,2Z" fill="#1cc0e4"/><path d="M180.08,51.16q8.58,0,17.17.16c4.31.08,6,2.38,6.08,6.89.06,5.6,0,11.21,0,16.81s.06,11.21,0,16.82c-.06,4.27-2.13,6.53-6.41,6.57q-8.55.09-17.09.09t-16.91-.08c-4.3,0-6.41-2.29-6.44-6.55q-.09-17,0-34c0-4.21,1.85-6.47,6-6.55q8.78-.15,17.57-.16m5.25,11.47-5,0h-5.71c-1.26,0-2.51,0-3.77,0h-.12c-2,0-2.85.93-2.85,2.91,0,6.23,0,12.45,0,18.68a2.43,2.43,0,0,0,2.75,2.75h7.55c3.59,0,7.18,0,10.76,0h0c2,0,2.94-1,2.93-3,0-6.1,0-12.2,0-18.31,0-2.12-.87-3.11-3-3.11h-.21c-1.14,0-2.29,0-3.44,0m-5.25-13c-5.81,0-11.73.06-17.6.16-3.4.07-7.46,1.51-7.5,8-.07,11-.07,22.41,0,34,0,5.13,2.85,8,7.93,8,5.63,0,11.32.08,16.92.08s11.45,0,17.11-.09c5,0,7.82-2.91,7.89-8,.05-3.92,0-7.89,0-11.73,0-1.7,0-3.4,0-5.11s0-3.33,0-5c0-3.87,0-7.88,0-11.83-.06-5.46-2.6-8.28-7.55-8.37-5.68-.11-11.46-.16-17.2-.16Zm5.25,14.47c1.35,0,2.46,0,3.49,0H189a1.76,1.76,0,0,1,1.16.28,2,2,0,0,1,.29,1.32c0,6,0,12.1,0,18V84A1.14,1.14,0,0,1,189,85.45c-3.61,0-7.2,0-10.79,0h-7.55c-1,0-1.25-.24-1.25-1.25V76.35c0-3.62,0-7.24,0-10.86a1.78,1.78,0,0,1,.27-1.14,1.61,1.61,0,0,1,1.08-.26h.09c1.13,0,2.33,0,3.8,0h10.72Z" fill="#1cc0e4"/><path d="M120.88,99.25q-8.23,0-16.45-.06c-5.31,0-7.79-2.54-7.82-7.87,0-11.59,0-22.35,0-32.9,0-5.43,2.42-7.88,7.77-8,5.51-.08,11-.12,16.43-.12s11.07,0,16.48.12,7.65,2.37,7.7,7.92c0,3.84,0,7.67,0,11.51v4.94c0,1.69,0,3.37,0,5,0,3.8,0,7.61,0,11.41-.05,5.58-2.27,7.87-7.67,7.9S126.36,99.25,120.88,99.25Zm-9.13-35.91a2.35,2.35,0,0,0-1.71.47,2.09,2.09,0,0,0-.44,1.54c0,6.27,0,12.55,0,18.67a2.35,2.35,0,0,0,.49,1.7,2.31,2.31,0,0,0,1.67.48l8.79,0,9.9,0h0a2.29,2.29,0,0,0,1.64-.44,2,2,0,0,0,.4-1.42c0-6.43,0-12.84,0-19a2.15,2.15,0,0,0-.42-1.55,2,2,0,0,0-1.41-.4c-1.32,0-2.56,0-3.79,0H115.68c-1.26,0-2.53,0-3.79,0Z" fill="#1cc0e4"/><path d="M120.83,51.1q8.24,0,16.46.12c5.13.08,6.92,2.13,7,7.18.05,5.48,0,11,0,16.44s0,11,0,16.45c0,5.11-1.93,7.13-6.92,7.16q-8.21,0-16.42,0t-16.48-.06c-5,0-7-2.19-7.07-7.12q-.06-16.45,0-32.9c0-5,2-7.13,7-7.2q8.2-.12,16.43-.12M111.75,87h0l8.79,0,9.87,0h0c1.78,0,2.78-.66,2.77-2.62q-.06-9.51,0-19c0-1.85-.76-2.7-2.58-2.7h-.1c-1.23,0-2.47,0-3.71,0H115.69c-1.26,0-2.53,0-3.79,0h-.15c-1.87,0-2.91.7-2.9,2.77q0,9.33,0,18.66c0,2,.9,2.93,2.91,2.93m9.08-37.35c-5.4,0-10.93,0-16.45.12-5.78.08-8.48,2.84-8.51,8.69-.06,10.54-.06,21.3,0,32.91,0,5.76,2.83,8.58,8.56,8.62,5.33,0,10.88.06,16.49.06,5.28,0,10.81,0,16.43,0,5.77,0,8.36-2.7,8.41-8.65,0-3.81,0-7.69,0-11.43,0-1.68,0-3.35,0-5s0-3.3,0-5c0-3.77,0-7.67,0-11.51-.05-6-2.57-8.57-8.44-8.66-5.41-.08-11-.12-16.48-.12ZM111.75,87v-1.5a1.75,1.75,0,0,1-1.14-.26,1.78,1.78,0,0,1-.27-1.17c0-6.11,0-12.39,0-18.67a1.51,1.51,0,0,1,.22-1c.07-.08.34-.25,1.18-.25h.12c1.13,0,2.34,0,3.82,0h11.16c1.25,0,2.49,0,3.74,0h.07a1.43,1.43,0,0,1,.88.18,1.64,1.64,0,0,1,.2,1c0,6.2-.05,12.61,0,19,0,.65-.14.84-.19.89s-.28.22-1.08.22l-9.89,0-8.8,0,0,1.5Z" fill="#1cc0e4"/><path d="M239,99.25c-5.69,0-11.43,0-17-.07-4.71,0-7.1-2.49-7.13-7.28-.06-11-.06-22.08,0-34,0-4.81,2.22-7.2,6.71-7.28,5.93-.12,12-.18,17.94-.18,5.57,0,11.23.05,16.85.15,4.55.08,6.8,2.58,6.87,7.62.05,3.9,0,7.85,0,11.67,0,1.72,0,3.44,0,5.16s0,3.28,0,4.92c0,3.78,0,7.69,0,11.54-.07,5.15-2.55,7.67-7.59,7.71C250,99.23,244.45,99.25,239,99.25Zm-9.74-35.91a2.17,2.17,0,0,0-1.54.42,2.06,2.06,0,0,0-.39,1.43c0,6.22,0,12.63,0,19a2.17,2.17,0,0,0,.42,1.54,2.06,2.06,0,0,0,1.49.43c4,0,8,0,11.95,0h7.11a1.88,1.88,0,0,0,1.49-.48,2.34,2.34,0,0,0,.42-1.57V81.49c0-5.34,0-10.69,0-16a2.29,2.29,0,0,0-.46-1.66,2.2,2.2,0,0,0-1.6-.46H248c-1.26,0-2.52,0-3.78,0H233.17l-3.84,0-.09-.75Z" fill="#1cc0e4"/><path d="M239.44,51.16q8.42,0,16.84.15c4.28.08,6.08,2.42,6.14,6.88.08,5.61,0,11.22,0,16.82s.05,11,0,16.45c-.06,4.71-2.15,6.94-6.84,7q-8.31.07-16.6.07-8.52,0-17-.07c-4.35,0-6.37-2.16-6.39-6.54q-.1-17,0-34c0-4.28,1.73-6.46,6-6.55q9-.16,17.91-.17m4.79,11.46H233.15l-3.81,0h-.1c-1.75,0-2.69.68-2.68,2.6q.06,9.53,0,19c0,1.88.82,2.72,2.67,2.72h0q6,0,12,0h7c1.9,0,2.65-1,2.65-2.8,0-6.22,0-12.44,0-18.66,0-2-.87-2.88-2.81-2.88H248c-1.26,0-2.51,0-3.77,0m-4.79-13c-6,0-12,.06-17.94.18-4.91.09-7.42,2.8-7.45,8-.05,12-.05,23.12,0,34,0,5.21,2.75,8,7.87,8,5.62,0,11.36.07,17.06.07,5.47,0,11,0,16.61-.07s8.26-2.88,8.33-8.45c0-3.86,0-7.79,0-11.58,0-1.63,0-3.26,0-4.89s0-3.42,0-5.14c0-3.83,0-7.79,0-11.7-.07-5.45-2.63-8.27-7.61-8.36-5.62-.1-11.3-.15-16.87-.15Zm4.79,14.46c1.47,0,2.68,0,3.8,0h.11a1.74,1.74,0,0,1,1.07.24,1.81,1.81,0,0,1,.24,1.13c0,5.3,0,10.68,0,15.89v2.78c0,.73-.16,1-.23,1.07a1.43,1.43,0,0,1-.92.23h-7q-6,0-12,0h0c-.71,0-.93-.16-1-.21s-.22-.27-.21-1c0-6.41,0-12.82,0-19a1.45,1.45,0,0,1,.18-.89s.23-.2,1-.2h.08c1.27,0,2.55,0,3.83,0h11.08Z" fill="#1cc0e4"/><path d="M120.85,158.34c-5.6,0-11.27,0-16.86-.09-4.85-.05-7.33-2.6-7.36-7.58-.07-11.16-.07-22.48,0-33.64,0-4.87,2.41-7.38,7.08-7.45,5.66-.1,11.55-.15,17.52-.15,5.43,0,11.11,0,16.88.12,4.43.06,6.81,2.54,6.87,7.18.06,4,.05,8,0,11.93,0,1.76,0,3.51,0,5.27s0,3.27,0,4.9c0,3.91,0,7.95,0,11.93-.06,5-2.46,7.44-7.35,7.49C132.07,158.31,126.42,158.34,120.85,158.34Zm.29-13.08c2.94,0,5.88,0,8.82.06h.13a2.7,2.7,0,0,0,2-.54,2.64,2.64,0,0,0,.45-1.94c-.09-2.1-.07-4.23,0-6.29,0-.9,0-1.8,0-2.7s0-1.79,0-2.69c0-2.06,0-4.19,0-6.29a2.56,2.56,0,0,0-.44-1.91,2.72,2.72,0,0,0-2-.54h-.14c-2.82,0-5.71.07-8.86.07s-6,0-9.07,0h0a2.64,2.64,0,0,0-1.94.51,2.41,2.41,0,0,0-.49,1.77c0,6,0,12.17,0,18.3a2.41,2.41,0,0,0,.49,1.77,2.67,2.67,0,0,0,1.89.51C115.07,145.28,118.1,145.26,121.14,145.26Z" fill="#1cc0e4"/><path d="M121.25,110.18c5.62,0,11.23,0,16.85.12,4.11.06,6.07,2.33,6.13,6.44.08,5.73,0,11.46,0,17.19s.05,11.21,0,16.82c-.05,4.5-2.07,6.71-6.61,6.75q-8.38.09-16.79.09T104,157.5c-4.45,0-6.59-2.33-6.62-6.83q-.1-16.81,0-33.64c0-4.33,2-6.63,6.34-6.7q8.76-.15,17.53-.15m-.17,11.56q-4.53,0-9.06,0h-.09c-2.12,0-3.12.82-3.1,3q.08,9.15,0,18.29c0,2.23,1,3,3.13,3H112c3,0,6.07,0,9.1,0s5.87,0,8.81.06h.14c2.27,0,3.27-.86,3.17-3.26-.13-3,0-6,0-9s-.1-6,0-8.95c.11-2.42-.93-3.23-3.18-3.23h-.15q-4.43.08-8.85.07m.17-13.06c-6,0-11.88,0-17.56.15-5.07.08-7.77,2.91-7.81,8.19-.07,11.17-.07,22.49,0,33.66,0,5.39,2.84,8.27,8.1,8.32,5.58.06,11.25.09,16.86.09s11.22,0,16.81-.09c5.3-.05,8-2.82,8.09-8.24,0-4,0-8,0-11.92,0-1.64,0-3.28,0-4.91s0-3.52,0-5.28c0-3.91,0-8,0-11.93-.07-5-2.77-7.85-7.61-7.92-5.76-.08-11.44-.12-16.87-.12Zm-.17,14.56c3.14,0,6,0,8.87-.07h.13c1,0,1.36.21,1.45.3s.27.4.23,1.36c-.09,2.12-.07,4.26,0,6.33,0,.9,0,1.8,0,2.69s0,1.8,0,2.7c0,2.06,0,4.2,0,6.32a2.18,2.18,0,0,1-.24,1.39,2.25,2.25,0,0,1-1.43.31H130c-2.78,0-5.67-.06-8.83-.06-2.74,0-5.73,0-9.12,0H112a2.14,2.14,0,0,1-1.36-.3,1.93,1.93,0,0,1-.27-1.23c0-6.13,0-12.29,0-18.31a1.88,1.88,0,0,1,.27-1.24c.11-.11.42-.29,1.33-.29H112c3.3,0,6.27,0,9.08,0Z" fill="#1cc0e4"/><path d="M239,158.34q-8.11,0-16.21-.06c-5.62,0-7.93-2.37-8-8.05,0-3.83,0-7.66,0-11.49v-5c0-1.68,0-3.35,0-5,0-3.81,0-7.62,0-11.42.05-5.29,2.4-7.77,7.41-7.83,5.66-.06,11.26-.09,16.64-.09,5.64,0,11.24,0,16.64.1s7.67,2.55,7.7,8c.05,12.07.05,22.83,0,32.89,0,5.31-2.54,7.8-7.89,7.84S244.4,158.34,239,158.34Zm-9.5-35.91a2.41,2.41,0,0,0-1.72.47,2.44,2.44,0,0,0-.46,1.78c.08,5.94.08,12.1,0,18.3a2.55,2.55,0,0,0,.47,1.84,2.45,2.45,0,0,0,1.78.49c3.18,0,6.28-.05,9.37-.05s6,0,9,0h0a2.43,2.43,0,0,0,1.77-.49,2.72,2.72,0,0,0,.51-1.95c0-5.28-.07-11.54,0-17.93a2.69,2.69,0,0,0-.52-2,2.44,2.44,0,0,0-1.79-.51h-.27c-1.14,0-2.27.06-3.41.06l-2.58,0h-8.18c-1.27,0-2.53,0-3.79,0Z" fill="#1cc0e4"/><path d="M238.84,110.17q8.31,0,16.63.1c4.93.07,6.93,2.3,7,7.28q.07,16.44,0,32.89c0,4.88-2.19,7.05-7.15,7.09q-8.16.06-16.32.06t-16.19-.06c-5.21,0-7.18-2.11-7.22-7.3,0-5.48,0-11,0-16.44s0-11,0-16.45c.05-4.82,2-7,6.67-7.08q8.31-.09,16.63-.09m5.37,11.57c-1.72,0-3.44,0-5.17,0h0l-5.58,0c-1.25,0-2.5,0-3.75,0h-.23c-2,0-3,.77-2.93,3q.12,9.13,0,18.28c0,2.22.85,3.09,3,3.09h.09c3.1,0,6.2-.05,9.31-.05s6,0,9,0H248c2.23,0,3-1.08,3-3.2,0-6-.06-11.94,0-17.91,0-2.31-.9-3.26-3.06-3.26h-.3c-1.13,0-2.26.06-3.4.06m-5.37-13.07v0h0c-5.39,0-11,0-16.65.09-5.43.06-8.1,2.87-8.15,8.57,0,3.81,0,7.67,0,11.41,0,1.68,0,3.36,0,5v4.92c0,3.77,0,7.68,0,11.53,0,6,2.73,8.75,8.71,8.79,5.44,0,10.89.06,16.2.06,5.48,0,11,0,16.33-.06,5.78-.05,8.6-2.85,8.64-8.58.06-10.07.06-20.83,0-32.91,0-5.83-2.79-8.7-8.44-8.77-5.4-.07-11-.1-16.65-.1Zm5.37,14.57c1.34,0,2.43,0,3.46-.06h.24a1.94,1.94,0,0,1,1.26.29,2.28,2.28,0,0,1,.3,1.45c-.08,6.41-.05,12.67,0,17.94,0,1-.18,1.31-.29,1.42a1.79,1.79,0,0,1-1.18.27h-.06c-3,0-6.05,0-9,0-3.14,0-6.28,0-9.32.05h-.08c-.89,0-1.17-.18-1.25-.26s-.27-.38-.25-1.31c.08-6.19.08-12.36,0-18.32,0-.91.18-1.18.24-1.24s.34-.25,1.19-.25h.19c1.12,0,2.32,0,3.79,0h8.16l2.6,0Z" fill="#1cc0e4"/></g></g></svg>