<svg xmlns="http://www.w3.org/2000/svg" viewBox="0 0 335.44 383.62"><g id="Layer_2" data-name="Layer 2"><g id="Layer_1-2" data-name="Layer 1"><path d="M272.59,383.62c-11.75-2.41-22.25-7.22-30.7-16q-1.69-1.74-3.23-3.63c-3.36-4.14-3.32-4.12-8.16-1.46-17.24,9.5-35.09,17.46-54.82,20a82.09,82.09,0,0,1-35.87-3.13C77.44,359.54,35.16,318.41,12,257.48,3.34,234.75,0,211,0,186.72Q0,122.16,0,57.61A44.74,44.74,0,0,1,.1,53.12c.48-5.06,3.5-8,8.57-8A347.87,347.87,0,0,0,60,40.8a7.84,7.84,0,0,1,9.19,6.27c.79,4.79-1.71,8.52-6.92,9.32-8.49,1.31-17,2.35-25.57,3.22a165.25,165.25,0,0,1-16.79.8c-3.23,0-4,1.26-4,4.22.09,21.7,0,43.41,0,65.12,0,20.58-.26,41.17.06,61.74.8,51.23,19.34,95,56.07,130.82,19.8,19.29,43.24,32.75,69.53,41.29a75.59,75.59,0,0,0,48.82-.48,195.14,195.14,0,0,0,35.05-15.84c2.18-1.26,2.89-2.57,2.17-5.13a42.94,42.94,0,0,1-1.63-12.57c.06-3.11-.8-3.44-3.35-1.76a178.19,178.19,0,0,1-34,17.05c-15.92,6.13-31.63,5.94-47.4-.3C84.59,322.13,50,280.92,36.87,221.53a152.56,152.56,0,0,1-3.17-32.7q0-50.15,0-100.29C33.7,80.37,35.51,78,43.56,77A425.34,425.34,0,0,0,104.2,66.1c19.52-5.16,38.19-12.36,55.51-22.82,3.7-2.24,7.11-2.47,10.86-.21,29.28,17.6,61.67,25.83,95,31.1,7.87,1.25,15.82,2,23.72,3.06,4.87.63,7.48,3.34,7.48,8.17,0,38.18.6,76.36-.3,114.51-.6,25.28-8.31,49-20.75,71.15-.59,1-2,2.1-1.23,3.3s2.3.46,3.5.47c4.11.06,8.24-.23,12.29.76,2.11.52,3.39,0,4.44-2.12a183.38,183.38,0,0,0,18.92-64.2,305.61,305.61,0,0,0,1.32-31V66c0-5.46,0-5.31-5.61-5.54-48.61-2-94.77-13-136.72-38.39-5.7-3.45-9.26-3.58-14.65.15-9.12,6.32-19.26,11-29.54,15.25-4.91,2-9.32.64-11.16-3.39-2-4.38-.27-8.7,4.77-10.95,13.47-6,26.54-12.69,38.5-21.43a7.81,7.81,0,0,1,9.76,0c30.14,21.39,64.17,32.77,100.22,39a333.53,333.53,0,0,0,51,4.36c6.13.11,9,2.88,9,9,0,48,.42,96.06-.21,144.08-.36,28.3-8,55.14-20.51,80.54-1,2.09-1.56,3.38.95,5.16,19.19,13.55,28,32.13,23.65,55.35-4.46,23.79-19.56,38.28-43.13,43.88-.72.17-1.43.39-2.15.59ZM87.84,289a4.85,4.85,0,0,0,.34-1.07c1-26.53,1.92-53.07,3.13-79.59.24-5.42-1.55-9-5.66-12.5a38.63,38.63,0,0,1-14-27.6c-.84-12-.25-23.94-.38-35.91-.08-6.73-.15-13.48.19-20.2.26-5.37,3.66-8.63,8.06-8.52s7.6,3.78,7.62,9.29c0,10.48,0,21,0,31.44a56.17,56.17,0,0,0,.12,6.36c.62,5.6,4.33,9.06,9.25,8.82,4.56-.22,8-4.19,8.08-9.59.1-6.11,0-12.23,0-18.34,0-6.61-.07-13.22,0-19.83a8,8,0,0,1,7.25-8.13c4-.32,7.53,2.64,8.23,7.05a40.87,40.87,0,0,1,.39,6c.05,11.47,0,23,.07,34.43,0,4,2,6.59,5.66,7.91,3.46,1.24,6.42.1,8.91-2.24,2.15-2,2.46-4.78,2.45-7.6,0-12,0-23.95,0-35.93,0-5.75,3.15-9.47,7.83-9.58s8,3.72,8.15,9.66c0,.5,0,1,0,1.49q0,24.33,0,48.66c0,13.95-5.21,25.5-16.16,34.25a9.91,9.91,0,0,0-3.86,8.82c.95,22.41,1.93,44.83,2.8,67.25.63,16.31,1.13,32.64,1.61,49a5,5,0,0,0,3.2,4.89c16.14,7.78,32.2,7.73,48.32-.07a4,4,0,0,0,2.68-3.93c.47-12.7,1-25.4,1.6-38.11.52-11.57,1.1-23.15,1.64-34.73q1.09-23.16,2.17-46.31a5.33,5.33,0,0,0-2.46-5.07,42,42,0,0,1-7.48-6.75c-11.06-12.6-10.83-27.81-9.25-42.91,1.85-17.66,11.59-31,25.59-41.44,8.57-6.35,21.5-6.21,30.16.3a70,70,0,0,1,15.6,16c8.59,12.39,10.75,26.28,10.2,41-.51,13.68-5.67,24.93-16.65,33.21a7.93,7.93,0,0,0-3.59,7.56c1.13,20.28,1.94,40.58,3.26,60.85.43,6.66,0,13.41,1.5,20.13,1.62-.81,2.47-2.22,3.44-3.44A153.64,153.64,0,0,0,272.54,240c6.26-17.48,8.58-35.58,8.7-54,.14-21.83,0-43.66,0-65.49q0-12.35,0-24.7c0-2,0-3.6-2.75-3.92-6.92-.82-13.84-1.79-20.72-2.94-31.28-5.22-61.67-13.27-89.53-29.05a5.22,5.22,0,0,0-5.84,0,197.5,197.5,0,0,1-25.64,12.24c-26.67,10.37-54.46,16-82.74,19.55-3.71.45-4.42,1.83-4.41,5.14.1,32.18,0,64.37.12,96.55a117.58,117.58,0,0,0,.89,14.17,149.34,149.34,0,0,0,33.9,78.57C85.46,287.19,86.14,288.63,87.84,289ZM244,161.1c.92-19.86-7.47-29.93-17.62-38.59-4.13-3.53-9.2-4.17-13.09-1.3-9.64,7.11-16.65,16.13-18.81,28.23-1,5.41-.41,10.95-.5,16.43-.13,8.81,3.6,15.69,10.61,20.77,6.51,4.71,9.53,10.84,9.11,18.92-.92,17.79-1.62,35.6-2.46,53.4-.29,6.22-.77,12.43-1.08,18.65-.61,12.44-1.11,24.9-1.75,37.34-.15,3,1,2.78,2.9,1.45,3.89-2.71,7.64-5.66,11.73-8,5.48-3.16,6.32-7.71,5.91-13.54-1.24-17.77-2-35.58-3-53.36-.63-11.45-1.18-22.9-2-34.32-.64-8.56,1.88-15.45,9.18-20.33a25.33,25.33,0,0,0,8.28-9.47C244.2,172.05,244.13,166.33,244,161.1Zm37,129.68C259.79,290.7,242.2,308,242.07,329c-.13,21.35,17.65,39.41,38.77,39.35a38.77,38.77,0,0,0,.16-77.53ZM89.43,174.6a23.52,23.52,0,0,0,8.16,10.79c6.94,5.42,9.93,12.57,9.62,21.23q-.72,19.6-1.51,39.2c-.33,8-.84,15.91-1.14,23.88-.41,10.83-.68,21.66-1,32.49a4.53,4.53,0,0,0,1.58,4,137.72,137.72,0,0,0,14.29,10.19c2,1.28,2.65.47,2.59-1.6q-.23-7.84-.55-15.68c-1.23-30.49-2.09-61-3.39-91.48-.42-9.84,2.91-17.41,10.77-23.26a19.69,19.69,0,0,0,6.93-9.93c-8.36,2-15.52.49-21.93-4.42a1.9,1.9,0,0,0-2.67,0C104.91,175,97.78,176.24,89.43,174.6Z"/><path d="M93.73,49.12a7.81,7.81,0,1,1,8.07-7.61A7.94,7.94,0,0,1,93.73,49.12Z"/><path d="M255.11,329.94c0-6.66,6.32-10.38,11.63-7.17a21.79,21.79,0,0,1,5,4.41c2.12,2.44,3.74,2.57,6,.1,4.24-4.57,8.74-8.89,13.21-13.24,2.21-2.14,4.73-3.72,8.05-2.87,6.27,1.59,8.26,8.61,3.62,13.52-5.13,5.44-10.53,10.63-15.82,15.92-2,2-4,4.13-6.11,6-3.92,3.54-7.88,3.66-11.69.13-4.1-3.82-8-7.88-11.91-11.89A6.53,6.53,0,0,1,255.11,329.94Z"/></g></g></svg>