<svg xmlns="http://www.w3.org/2000/svg" viewBox="0 0 383.66 383.36"><g id="Layer_2" data-name="Layer 2"><g id="Layer_1-2" data-name="Layer 1"><path d="M0,196.12c1.41-10,2.51-20.05,5.47-29.73Q37,63.12,142.81,41.06a126.26,126.26,0,0,1,28.27-2.4c5.93.12,8.79,2.8,8.81,8.66q.08,18.9,0,37.8c0,6.46-2.82,9.27-9.36,9.4-20,.39-38.79,5.14-56,15.31-32.08,19-51.66,46.75-57.5,83.66C49,244,75.53,294,121.58,316.18a125.19,125.19,0,0,0,18.5,7.05c4.95,1.48,7.38,5.38,6.35,9.51-1.18,4.7-5.38,7.08-10.49,5.67a95.19,95.19,0,0,1-19.23-7.22c-3.07-1.61-4.47-1-6,2-2.56,5-5.42,9.83-8.41,14.58-1.47,2.33-1,3.29,1.37,4.42,19.06,9,39,14.39,60.09,15.33,47.47,2.13,87.68-14.12,121.11-47.58a149.2,149.2,0,0,0,17.2-21.18c1.28-1.87,1.21-2.92-.88-4.07-5.25-2.89-10.46-5.84-15.53-9-2.42-1.52-3.52-.89-5.05,1.26a132.09,132.09,0,0,1-69.06,50.59,36.25,36.25,0,0,1-4,1.09c-4.62.94-8.36-1.24-9.62-5.53-1.14-3.91.92-8,5.26-9.45,5.54-1.9,11.17-3.55,16.48-6.07q56.45-26.85,67.53-88.39a100.74,100.74,0,0,0,1.5-16.73c.08-6.24,3-9,9.3-9.06q18.7,0,37.42,0c6.38,0,9.21,2.75,9.08,9.12-1.15,57.75-25.26,103.82-71.28,138.35A157.91,157.91,0,0,1,192,382.43c-66.47,6.1-120.22-17.66-160.21-71.22C13.39,286.59,3.41,258.46.46,227.86a11.6,11.6,0,0,0-.46-1.8Zm33.65-55.78c-1.81.11-2.11,1.47-2.63,2.55a156.16,156.16,0,0,0-15.31,76.49,154.47,154.47,0,0,0,19.21,67.34,157,157,0,0,0,49.15,54c2.35,1.61,3.49,1.41,4.83-1.12,2.57-4.84,5.27-9.63,8.25-14.23,1.79-2.76,1.6-4.15-1.22-6.21C59.35,292.41,40.47,256.25,39.71,211a123.31,123.31,0,0,1,12.35-55.36c1.3-2.75,1.46-4.26-1.65-5.8-5-2.5-9.76-5.53-14.62-8.33C35,141.05,34.26,140.66,33.65,140.34ZM164.42,67q0-3.55,0-7.11c0-5.25,0-5.25-5.11-5-.63,0-1.25,0-1.87.09A157.47,157.47,0,0,0,42.72,122.68c-1.82,2.63-1.56,3.87,1.24,5.34,5,2.6,9.83,5.42,14.55,8.43,2.53,1.62,3.77,1,5.34-1.28a121.4,121.4,0,0,1,22.26-24.6c21.76-18.4,46.81-29.11,75.3-31.4,2.24-.18,3.1-1,3-3.18C164.33,73,164.41,70,164.42,67ZM316.23,218.85c-3.11,0-6.23,0-9.34,0-1.86,0-2.65.74-2.78,2.63a125.81,125.81,0,0,1-12.31,46.27c-1,2-.64,3,1.32,4.11,5.24,2.87,10.44,5.84,15.53,9,2.27,1.38,3.39,1.08,4.55-1.36a162.4,162.4,0,0,0,9.53-24.72,159.69,159.69,0,0,0,5.74-31.53c.29-3.52-1-4.72-4.4-4.41C321.48,219,318.85,218.84,316.23,218.85Z" fill="#1cc0e4"/><path d="M311.39,0c13,2.29,25.28,6.51,36.3,14.08a82.85,82.85,0,0,1,33.78,87c-7.94,33.47-35.44,58.62-69.08,63.16a81.88,81.88,0,0,1-48.34-7.84,9.22,9.22,0,0,0-7.18-.71Q248.8,158,240.62,160c-11.62,2.83-20.24-5.71-17.43-17.29,1.35-5.57,2.88-11.1,4.45-16.61a8.62,8.62,0,0,0-.55-6.49C202.23,67.75,232.19,10.15,289,.45A10.49,10.49,0,0,0,290.43,0Zm-9.51,15.27c-21.2.63-38.18,8.09-51.52,23.26a65.12,65.12,0,0,0-16.42,43.11,63.83,63.83,0,0,0,8.92,33.94,12,12,0,0,1,1.23,10.35c-1.51,4.74-2.6,9.61-3.94,14.41-.76,2.7.09,3.51,2.77,2.76,4.31-1.22,8.74-2.1,13-3.57,4.6-1.6,8.56-1.05,12.8,1.35a64.21,64.21,0,0,0,42.23,7.64,67.1,67.1,0,0,0,56.64-72C364.85,45,338.78,15.89,301.88,15.27Z" fill="#1cc0e4"/><path d="M184.25,162.86c-.19,5.18-.19,5.2,3.64,3.82,15.5-5.58,28.51-.27,39.91,9.87s16.83,23.36,17.21,38.51c.73,29-9.35,53.89-29.14,74.91a31.68,31.68,0,0,1-12.4,8.16,18.81,18.81,0,0,1-14.94-.59c-11-5.31-21.65-5.25-32.69,0-7.67,3.62-15.14,1.85-21.88-3-9.79-7-16.49-16.59-22-27-7.8-14.73-12.72-30.42-13-47.17-.4-24.61,11.68-45.92,34.39-53.81,2.44-.85,2.7-1.7,1.54-4a36.36,36.36,0,0,1-1.78-30.41c3.12-8.33,5.88-9.94,14.7-8.86a41.74,41.74,0,0,1,35.25,30.86A37.55,37.55,0,0,1,184.25,162.86Zm-69.51,56.4a37.77,37.77,0,0,0,.78,9.33c3,18.63,10.09,35.38,23.08,49.39,4.45,4.8,9.12,6.59,15.57,3.55,11.81-5.59,24-5.72,35.79-.06,6.65,3.19,11.44,1.32,15.88-3.62,1-1.12,2-2.2,3-3.35,9.95-12,15.93-25.84,19.14-40.93,2.6-12.2,2.59-24.3-3.36-35.73-8.12-15.61-21.61-20.47-37.68-13.64-5.29,2.25-10.57,4.42-16.54,4-5.76-.45-10.83-2.9-15.88-5.29-7.83-3.71-15.21-3-22.39,1.54C119.33,192.54,115.22,205,114.74,219.26ZM168.33,162c-.59-9.85-6.27-16.8-15.6-21.09-5.09-2.34-6.39-1.43-6.48,4.18-.15,9.86,9,21.11,18.73,23.09,1.94.4,2.86-.23,3.09-2.07C168.2,165,168.21,163.89,168.33,162Z" fill="#1cc0e4"/><path d="M179.89,335.65a7.73,7.73,0,1,1-7.68-7.91A7.83,7.83,0,0,1,179.89,335.65Z" fill="#1cc0e4"/><path d="M272.46,58.25c7.2.37,12.68,2.62,17,7.15,2.37,2.51,3.81,2.06,6-.21q7.86-8.26,16.12-16.14c9.37-9,20.32-10.37,29.91-4,11.82,7.8,14,24.32,4.14,34.48q-18.6,19.2-37.8,37.82a22.23,22.23,0,0,1-30.83,0c-7.12-6.8-14.18-13.69-20.85-20.92s-7.75-15.71-3.85-24.67C255.79,63.52,264.72,58,272.46,58.25Zm.87,16c-3.34,0-5.46,1.33-6.67,4a6.87,6.87,0,0,0,1.6,8.23q8.94,9.06,18,18c4.31,4.26,7.91,4.25,12.28-.08q11-10.94,22-22c4.41-4.41,8.85-8.79,13.2-13.26a7,7,0,0,0-3.89-12c-2.9-.48-5,1-6.92,2.92-8,8-16,16.09-24.09,24.06-4.2,4.14-8.63,4.11-12.84.07-2.53-2.41-5-4.92-7.43-7.39C277,75.3,275.22,74.15,273.33,74.29Z" fill="#1cc0e4"/></g></g></svg>