<svg xmlns="http://www.w3.org/2000/svg" viewBox="0 0 382.39 382.54"><g id="Layer_2" data-name="Layer 2"><g id="Layer_1-2" data-name="Layer 1"><path d="M191.09.09C238.86.09,286.63.15,334.4,0c5.11,0,8.35,1.73,11,6q17.36,28.19,35.12,56.14c2.3,3.63,2,7.43,1.52,11.2a52.89,52.89,0,0,1-19.52,35.07,6.58,6.58,0,0,0-2.72,5.69q.12,34.42,0,68.85c0,2.81.56,4,3.73,4.55a22.75,22.75,0,0,1,.1,44.78c-3.38.56-3.84,2-3.83,4.85.09,27.56.06,55.13,0,82.69,0,7.71-2.38,10.1-10,10.11-8,0-16,.08-23.94,0-2.72,0-3.87.78-4.47,3.62-5.53,26.54-26.69,46-52.56,48.67-31.26,3.17-59.07-17.14-65.63-48.21-.72-3.39-2.12-4.1-5.23-4.09q-59.13.12-118.24,0c-3.47,0-4.48,1-4.43,4.45.18,12.85.08,25.69.06,38.54,0,6.87-2.62,9.46-9.51,9.47q-16.84,0-33.68,0c-7.19,0-9.72-2.5-9.72-9.63q0-67.35.06-134.71c0-3.42-.39-5.13-4.46-5.88C6.85,230-.2,220.5,0,208.87a22.44,22.44,0,0,1,19-21.4c2.69-.44,3.49-1.33,3.48-4q-.12-34.8,0-69.6a6.32,6.32,0,0,0-2.63-5.36C7.43,98.18.6,85,0,68.66a10.77,10.77,0,0,1,1.75-6.35C13.57,43.51,25.41,24.74,37.05,5.84,39.65,1.63,42.85,0,47.78,0Q119.44.21,191.09.09Zm0,232.57H43c-5,0-5,0-5,4.86v71.83c0,5.11,0,5.12,5.11,5.12H197.23c.75,0,1.5-.05,2.24,0,2.13.14,3.27-.76,3.49-2.94a27.21,27.21,0,0,1,.76-3.65c7.29-30.36,37.48-50.39,68-45.15,25.61,4.38,44.19,22.42,49.73,48.45.53,2.46,1.51,3.37,3.95,3.31,4.86-.11,9.74-.24,14.59,0,3.56.21,4.4-1.13,4.38-4.49-.12-24.07-.06-48.14-.07-72.21,0-5.17,0-5.18-5-5.18ZM191.22,60q82.29,0,164.6,0c1.19,0,2.8.62,3.49-.53s-.7-2.22-1.32-3.23c-7.64-12.28-15.4-24.48-22.91-36.84-1.71-2.82-3.59-3.84-6.87-3.84q-66,.16-132,.08-71.08,0-142.16-.06c-3.08,0-5,.81-6.62,3.6-2.94,5.2-6.29,10.17-9.47,15.25C33.16,42,28.44,49.63,23.63,57.21c-1.28,2-1.06,2.92,1.49,2.77,1-.06,2,0,3,0ZM266,157.28q27.3,0,54.62,0c6.63,0,9.22,2.66,9.27,9.34,0,3.49,0,7,0,10.48,0,10.2,0,10.08,10.22,10.18,3.23,0,4.32-.85,4.29-4.2q-.2-30.5,0-61c0-3.33-1-3.56-3.91-3-17.14,3.54-32.63,0-46.29-11.16a48.76,48.76,0,0,1-9.76-10.77c-1.17-1.74-2.06-1.91-3.18,0a27.76,27.76,0,0,1-2,2.72c-21.43,27.7-64.25,27.34-85.21-.72-2.94-4-2.87-3.89-6,0-13.47,16.87-31,23.81-52.25,20.43-14.46-2.3-25.95-9.89-34.41-21.86-1.63-2.29-2.31-2.34-4.07,0-14.1,18.85-32.89,25.79-55.9,21.31-3-.59-3.65.1-3.59,3,.17,7.61.06,15.22.06,22.83,0,12.84.07,25.69,0,38.53,0,2.93.89,4.11,3.85,3.86a37.82,37.82,0,0,1,6.73,0c3.22.31,4-1.12,4-4.11-.13-13.1-.08-26.19,0-39.29,0-6.21,2.72-9,8.81-9q21.33-.06,42.66,0c6.16,0,8.89,2.76,8.91,8.93,0,11.1,0,22.2,0,33.3,0,10.24,0,10.07,10.17,10.24,3.63.06,4.37-1.27,4.33-4.56-.15-12.72-.07-25.44-.06-38.16,0-7.21,2.51-9.75,9.6-9.76q20.58,0,41.16,0c7.14,0,9.63,2.52,9.64,9.71,0,12.84.11,25.69-.06,38.54-.05,3.33,1,4.51,4.29,4.18a34.54,34.54,0,0,1,6.35,0c2.87.23,4.05-.73,3.93-3.78-.21-5.48-.07-11-.05-16.47,0-7.19,2.5-9.72,9.62-9.72Q238.89,157.26,266,157.28Zm-74.83,59.88H355a37.3,37.3,0,0,0,4.49-.11c4.15-.51,7-3.35,7.11-6.94s-2.88-6.75-7.15-7.3a20.79,20.79,0,0,0-2.62-.09H25.42a14,14,0,0,0-5.14.76,6.9,6.9,0,0,0,0,13,16.6,16.6,0,0,0,6.26.74Zm26.47,104.63c.54,24.64,18.4,44.56,44.29,44.86,24.11.29,44.23-17.67,44.75-43.82.48-23.95-17.34-44.57-43.91-45C238.62,277.37,218.87,295.45,217.65,321.79ZM53.57,75.47q-16.26,0-32.52,0c-4.26,0-4.44.27-3.09,4.14,5.11,14.63,20.09,25.25,35.56,25.2,15.94,0,30.92-10.81,36-25.73,1-2.8.43-3.71-2.66-3.67C75.74,75.56,64.65,75.47,53.57,75.47Zm91.36,29.33c16.29-.28,30.25-9.73,36-25.1,1.47-3.94,1.26-4.22-2.94-4.23q-32.7,0-65.4,0c-4.17,0-4.33.26-2.87,4.2C115.16,94.47,128.66,104.1,144.93,104.8Zm92.36-29.33q-16.44,0-32.88,0c-4.23,0-4.41.28-3,4.18,5.13,14.63,20.15,25.26,35.58,25.16,16-.09,30.94-10.88,35.95-25.76,1-2.88.3-3.68-2.72-3.64C259.22,75.55,248.26,75.47,237.29,75.47Zm91.17,0c-11,0-21.93.08-32.89,0-2.92,0-3.78.62-2.79,3.58,5,14.85,19.9,25.66,35.93,25.82,15.51.14,30.75-10.78,35.78-25.47,1-3,.52-4-2.77-3.93C350.63,75.56,339.54,75.47,328.46,75.47Zm-62.19,97.31H227.35c-9.78,0-9.63,0-9.81,9.86-.06,3.59,1,4.68,4.62,4.66,27.32-.14,54.64-.08,82-.08,10.42,0,10.31,0,10.35-10.43,0-3.07-.91-4.1-4-4.07C295.71,172.85,281,172.78,266.27,172.78ZM97.33,169.05c0-5.11-.07-10.23,0-15.34,0-2.28-.57-3.46-3.14-3.42-7.73.11-15.47.08-23.2,0-2.21,0-3.15.74-3.13,3q.1,15.35,0,30.69c0,2.48,1,3.26,3.33,3.23,7.61-.09,15.22-.12,22.82,0,2.76,0,3.39-1.18,3.33-3.62C97.24,178.79,97.33,173.92,97.33,169.05Zm45.44-.61c0,5.11.1,10.23,0,15.34-.07,2.6.86,3.53,3.46,3.48q11.24-.18,22.46,0c2.49,0,3.61-.66,3.57-3.37-.11-10.1-.09-20.21,0-30.31,0-2.42-.83-3.32-3.27-3.29-7.61.1-15.22.12-22.83,0-2.69-.05-3.45,1.06-3.38,3.56C142.86,158.7,142.77,163.57,142.77,168.44ZM38,348.42c0,5.11.06,10.23,0,15.34,0,2.2.72,3.18,3,3.14,5.36-.1,10.73-.08,16.09,0,2.11,0,2.86-.89,2.85-2.93q-.08-15.52,0-31.06c0-2-.71-3-2.83-2.94-5.37.07-10.73.08-16.09,0-2.29,0-3.09.91-3,3.12C38,338.19,38,343.3,38,348.42Z" transform="translate(0 0)"/><path d="M262.16,292a30.2,30.2,0,1,1-30.09,30.21A29.83,29.83,0,0,1,262.16,292Zm-.06,15.55c-7.85.16-14.62,7.09-14.47,14.8s7.09,14.64,14.8,14.48c7.86-.16,14.63-7.08,14.47-14.8C276.74,314.19,269.82,307.42,262.1,307.58Z" transform="translate(0 0)"/></g></g></svg>