<svg xmlns="http://www.w3.org/2000/svg" viewBox="0 0 369.01 383.53"><g id="Layer_2" data-name="Layer 2"><g id="Layer_1-2" data-name="Layer 1"><path d="M55.85,383.53C44.5,381.1,33.94,377,24.7,369.7c-22.78-18-31.22-50.47-19.31-77,5.9-13.12,7.76-26.36,4.85-40.43-1.8-8.68,3.21-13.71,11.87-11.87,13.82,2.94,27,1.59,39.67-4.68a48.1,48.1,0,0,1,14.64-4.39c3-.43,4.13-1.76,4.11-4.91-.13-20.34,0-40.67-.09-61,0-4.89.4-9.5,4.87-12.65,1.5-1.05.78-2.45.26-3.72a44.09,44.09,0,0,1-2.76-13.12c-.57-6.53.92-8.84,6.82-10.92,1-.34,1.55-.71,1.44-1.79-.37-3.58-.51-7.07-3.21-10.08-6.09-6.77-12-13.67-17.7-20.8-9.83-12.42-11.58-25.9-4.23-40.17,1.1-2.13.62-3.06-1.3-4.07-5.42-2.83-10.78-5.77-16.13-8.71C44.63,37.28,43.35,34,45,30.78s5.08-4,9.09-2a85.33,85.33,0,0,0,10.73,5c-1.67-2-3.36-4-5-6.1-3-3.79-3-7.15-.1-9.58s6.22-1.8,9.39,1.84a11.14,11.14,0,0,0,3.63,3.13c-.62-1.84-1.35-3.66-1.85-5.54-1-3.8.38-6.75,3.64-7.94s6.17.42,7.68,4.08c1.08,2.62,2,5.3,3.35,8.86,1.16-4.51.58-8.11.75-11.65.1-1.9.19-3.76,1.43-5.32A5.86,5.86,0,0,1,98.1,7.47c.86,2.7.38,5.44.27,8.17-.16,4.49-.24,9-.43,13.46-.1,2.21.75,3.21,3,3.1,6.75-.31,12.76,2,18.27,5.65,1.76,1.18,2.64.91,3.86-.82,12.83-18.21,35.32-20.47,51.47-5.25,1.11,1,2,1.88,3.86,1.55,21.16-3.73,32.82,2.35,42.07,22.55-2-9.75-3.88-18.47-5.69-27.2-1.75-8.43,1.15-12,9.76-12q6.73,0,13.48,0c7.28,0,9.45,1.76,11,8.94,1.3,6,2.51,11.91,4.17,17.81,0-11.3,0-22.6,0-33.9,0-7,2.49-9.45,9.46-9.47,5.37,0,10.73,0,16.1,0,6.3,0,9.11,2.75,9.16,9.13.08,10.11,0,20.21,0,30.32a5,5,0,0,0,.49,2.58c1.24-5.82,2.44-11.64,3.71-17.45s3.76-7.85,9.57-7.94c5.37-.08,10.73-.12,16.1,0,6.89.17,10,4.09,8.6,10.79q-12.61,60-25.36,120c-.63,3-1,5.48,2,7.49a5.4,5.4,0,0,1,1.87,3.15,53.32,53.32,0,0,1,.19,19.71c-.53,3-3.1,4.6-6.18,4.27a5.51,5.51,0,0,1-5.22-5.46c-.22-3.23-.19-6.48-.09-9.72.09-2.43-.88-3.48-3.29-3.29-.74.06-1.49,0-2.24,0H98.37c-5.65,0-5.65,0-5.65,5.78v149c0,5.1,0,5.11,5.17,5.11,36.43,0,72.86,0,109.29.08,3.6,0,4.7-.85,5.1-4.68,2.4-23.16,14.11-40.09,35.19-50.16,3.09-1.47,3.32-2.62,2.09-5.51a43.73,43.73,0,0,1-2.08-27.84c.85-3.58,2.61-6.4,6.54-6.69s6,2.36,7.33,5.77c3,7.92,8.23,14.15,14.55,19.63,2.25,2,3.08,1.2,3.45-1.37,1.34-9.45.64-18.67-3.2-27.49-1.49-3.43-1.76-6.54,1.26-9.18s6.22-1.81,9.27.17c1.15.75,2.24,1.6,3.43,2.27,1,.58,1.77,2.36,3.05,1.57,1.06-.66.44-2.32.46-3.52.05-4.37,0-8.74,0-13.1s2.29-6.9,5.68-7,6.08,2.36,6.19,6.56c.28,10.85.31,21.7.22,32.55,0,4.61,1.81,8.67,2.62,13.8A47.43,47.43,0,0,0,317,236.69c.52-1.13,1-2.3,1.43-3.45,1.21-3,3.44-4.72,6.6-4.62,3.38.09,5.5,2.23,6.39,5.4a43,43,0,0,1-1.45,28.59c-1.16,2.82-.48,3.73,2.17,4.81,19.23,7.85,31.36,22,36.59,42.05,1.08,4.14-.56,7.26-3.84,8.19-3.49,1-6.42-1-7.75-5.14-.15-.47-.3-.95-.43-1.43a46.34,46.34,0,0,0-18.32-26.55c-12.76-9.11-26.81-11.64-41.91-7.3a17.22,17.22,0,0,1-10.2.06,48,48,0,0,0-62,45.71c-.18,25.86,18.46,46.49,44.37,48.43,16,1.2,32.24,1.75,48.18-.33,19.21-2.51,32-14,38.91-32,.36-.93.57-1.92,1-2.83,1.45-3.25,4.5-4.65,7.66-3.58,2.88,1,4.49,3.9,3.62,7.29a51.57,51.57,0,0,1-6.12,14.4c-9.19,14.87-22.24,24.32-39.34,28.14-1.33.3-2.64.69-4,1ZM235.3,371.46c-14.6-14.7-15.15-15.47-21.42-33.36-.78-2.21-2.13-2.41-4-2.41q-56.68,0-113.36,0c-2.94,0-3.92,1-3.88,3.92.14,9.11,0,18.21,0,27.32,0,5.09,0,5.1,5.16,5.1q66.8,0,133.57,0C232.64,372,233.92,372.35,235.3,371.46ZM180.6,85.36c0-2.26,0-3.34,0-4.42,0-6.23,0-12.47.2-18.71.15-4,2.89-6.66,6.26-6.61s5.72,2.79,5.89,6.89c0,1.13,0,2.25,0,3.37q-.33,16.08-.68,32.17c0,1.9,0,3.75,1.4,5.25.66.69.95,2,2.21,1.67a3.2,3.2,0,0,0,2.53-2.49,17.47,17.47,0,0,0,.14-3c0-4.36-.05-8.73.14-13.09.17-3.73,2.51-6.1,5.72-6.23,3.41-.13,5.92,2.16,6.32,6a51.8,51.8,0,0,1,.07,6c0,5-.05,5,4.72,4.5,1.24-.12,2.51,0,3.73-.23,3.21-.51,7.84,1.86,9.25-.62,1.26-2.22-1.15-6.35-1.51-9.68-.72-6.71-5.09-9.94-10.85-11.9-6.32-2.16-6.89-2.85-7-9.6a20.8,20.8,0,0,0-30-18.65c-5.46,2.6-7.19,2.18-10.69-2.64-7.42-10.21-20.27-12.53-30-5.42s-11.31,20.18-3.87,30.2c3.35,4.5,3.22,6.65-.61,10.8-.59.64-1.16,1.31-1.73,2-1.26,1.44-1.45,2.65.24,4.09A39.49,39.49,0,0,1,145,105.41c.68,2.55,1.77,3,4.23,2.59,3.16-.56,6.57-1.47,9.6-.06,3.89,1.82,8.14,2.07,12.11,3.47,4.46,1.58,9.07,2.75,13.61,4.09.69.2,1.49.76,2.07,0s-.1-1.39-.49-2c-1.89-3-4-5.53-7.82-6.4-4.85-1.1-9.57-2.79-14.34-4.24C157.65,101,151.3,99.11,145,97.06c-3.73-1.23-5.42-4.35-4.42-7.49s4-4.79,7.8-4c1.1.23,2.16.62,3.24.94l18,5.35c-.08-1.88-1.26-2.74-2-3.81-3.9-5.48-8-10.85-11.78-16.41-2.1-3.09-1.42-6.32,1.27-8.27s6-1.49,8.33,1.28c1.29,1.51,2.39,3.19,3.57,4.8ZM36.88,267.12a37.26,37.26,0,0,0,3.48,9.2c3.89,6.86,8.75,13,13.6,19.21,2.82,3.59,2.69,7-.1,9.27s-6.48,1.61-9.41-2a166.52,166.52,0,0,1-11.77-15.93c-1.23-1.93-2.44-3.86-3.93-6.22a33.68,33.68,0,0,0-.65,17.69c4,17.41,14.27,30.79,27.55,42.12A77.58,77.58,0,0,0,77,353.38c2.43,1,3.51.41,3.44-2.29-.07-2.87-.14-5.75,0-8.6.16-2.65-1-4.37-2.92-6.05q-6.81-5.85-13.24-12.12c-3.05-3-3.18-6.37-.72-8.94s6-2.33,9,.35c2.37,2.1,4.7,4.25,7.75,7,0-8.55,0-16.11,0-23.67,0-1.52-1.19-2.41-2.18-3.35a202.41,202.41,0,0,0-25.32-21C48.14,271.49,43.26,268.49,36.88,267.12ZM100.1,43.89c-8.74,1.9-17.41,5.66-23.22,13.71-5.39,7.45-4.11,18.81,2.38,26.83,4.62,5.72,9.75,11,14.15,16.92,3.25,4.33,7,6.62,12.44,6.76,2.23,0,3.19-.33,3.65-2.43a39.1,39.1,0,0,1,5-11.64,12,12,0,0,0,1.72-4.9,29.08,29.08,0,0,1,5.27-13.82,4.16,4.16,0,0,0,.23-5.08,30.48,30.48,0,0,1-3.9-15.4,5.23,5.23,0,0,0-1.5-4.06C112,46.55,106.87,44.4,100.1,43.89Zm42.26,107.43a21,21,0,0,1,3.37,0c4,.66,6.53-.82,8-4.73.83-2.15,2.57-4,3.87-5.93.66-1,2.26-1.79,1.58-3.11s-2-.19-3.09-.16c-5.68.13-9-4.45-6.92-9.81a24.32,24.32,0,0,0,1.12-2.77c.34-1.37,1.82-2.89.46-4.14s-2.86,0-4.2.56c-8,3-11.52.87-12.28-7.58A30.7,30.7,0,0,0,130.75,102c-.86-1.61-1.47-4.08-3.35-4.17s-2.54,2.45-3.44,4c-2.46,4.3-3.3,9-4,13.91-.86,6.3-4.83,8.35-10.75,6.08-1.76-.68-3.9-2.59-5.46-.86s.4,3.74,1.14,5.5c2.81,6.67-.22,11.27-7.4,10.8-2.29-.15-2.52.47-2.11,2.46a39,39,0,0,0,3,8.81,4.54,4.54,0,0,0,4.73,2.86c5-.11,10-.1,15,0,2.39,0,3.37-.84,3.31-3.29-.11-4.36-.11-8.73,0-13.09a5.89,5.89,0,0,1,5.93-5.95,6,6,0,0,1,5.71,5.84c.16,2.48.06,5,.06,7.48C133.21,151.32,133.21,151.32,142.36,151.32ZM15.5,299.37c-2.67,8.24-4,16.16-3.06,24.54,2.34,21.33,16.62,39.11,37,45.45a53.63,53.63,0,0,0,28,1.14c1.17-.26,2.69-.36,2.76-2s-1.46-1.79-2.59-2.22c-2.34-.86-4.76-1.54-7-2.59C42.66,350.73,24,329.76,15.5,299.37Zm268.16-148c3.24,1.06,4.64-.9,5.43-4.71C295.43,116,302,85.41,308.41,54.82c1.6-7.56,3.2-15.11,4.72-22.69.24-1.16,1.19-2.67-1.12-3.21-5.9-1.38-8.4.09-9.65,6q-11.79,55.76-23.57,111.52C277.76,151.33,277.74,151.33,283.66,151.32Zm-13.19-26c3.2-12.28,6.2-24.47,5.32-37.24-.37-5.46-.06-11-.06-16.45q0-27.86,0-55.72c0-1.31.56-3.21-.9-3.74a12.84,12.84,0,0,0-8.08-.09c-2.09.65-1.25,3-1.25,4.64-.05,25.68.2,51.36-.15,77C265.19,104.72,268.26,114.93,270.47,125.36Zm-11.55,6c-.2-1.23-.31-2.2-.51-3.15Q248.56,81.62,238.68,35c-1.34-6.28-1.39-6.18-7.68-6.13-2.8,0-3.76.71-3.08,3.74,2.7,12,5.18,24.12,7.72,36.19,3.85,18.29,7.66,36.58,11.56,54.86.31,1.49.18,3.37,2.11,4.1ZM235,124c-.76-3.41-1.67-7.53-2.59-11.65-.31-1.4-1.46-1.91-2.64-2.39-12.25-5-28.71,2.2-33.51,14.65-.58,1.49-.82,2.49,1.21,3a37.89,37.89,0,0,1,14.29,7,2.41,2.41,0,0,0,3.35-.08A39.66,39.66,0,0,1,233,126.71C234.17,126.5,235.27,126.26,235,124Zm4,27.37c6.47,0,12.93,0,19.39,0,.83,0,1.9.33,2.41-.55s-.44-1.56-.92-2.22c-9.75-13.21-31.54-13.45-41.64-.46-.59.76-1.7,1.53-1.28,2.51.55,1.26,2,.71,3,.72C226.28,151.35,232.61,151.32,239,151.32Zm-55,0v0c5.36,0,10.73-.06,16.08,0,3.52,0,3.47-3.09,4.7-5,.93-1.48-.46-2.22-1.43-3-10.52-8.14-28.5-5.69-36.33,5-.5.69-1.38,1.41-1,2.27.47,1.14,1.73.73,2.67.74C173.74,151.34,178.85,151.32,184,151.32ZM50.32,259.07A159.22,159.22,0,0,1,78,279.25c.52.47,1.07,1.26,1.89.74s.52-1.34.53-2.06q0-6.51,0-13c0-1.29-.19-2.53-1.56-3.11C69.93,257.94,60.82,255.6,50.32,259.07Zm241.93-19.55A93.06,93.06,0,0,1,289.73,262c-.31,1.23-1.65,3.23.78,3.64,2.13.36,4.88.39,5.47-2.47A33.75,33.75,0,0,0,292.25,239.52ZM180.32,126.86c-5.33-1.6-9.89-3-14.45-4.32-1-.29-2.06-.53-2.3.95-.2,1.23.71,1.44,1.61,1.51,1.67.14,3.39.6,4.25,2,1.73,2.75,3.74,2.57,6.24,1.34A34.87,34.87,0,0,1,180.32,126.86Z"/></g></g></svg>