<svg xmlns="http://www.w3.org/2000/svg" viewBox="0 0 306.47 385.55"><defs fill="#1cc0e4"><style>.cls-1{stroke:#1cc0e4;stroke-miterlimit:10;stroke-width:2px;}</style></defs><g id="Layer_2" data-name="Layer 2"><g id="Layer_1-2" data-name="Layer 1"><path class="cls-1" d="M193.6,1c8.61,6.29,8.66,13.17.13,19.55-10.48,7.84-20.94,15.73-31.5,23.48A6.23,6.23,0,0,0,159.28,50a91.13,91.13,0,0,1,0,9.35c-.11,2.46.76,3.42,3.31,3.8,22.39,3.38,39.12,15.27,51,34.31,6.3,10.09,8.47,21.43,10.14,33,3.76,25.88,7.71,51.74,11.59,77.61.86,5.79,1.91,11.56,2.55,17.37.32,2.93,1.58,3.76,4.33,3.72,9.6-.1,19.21-.07,28.81,0,9.44,0,16.46,5.38,18.75,14.14,2.12,8.13-1.51,16.18-9.57,20.71a4.45,4.45,0,0,0-2.52,4.48q.06,39.48,0,78.95c0,2.7.76,3.83,3.61,3.73,4.86-.18,9.73-.09,14.59,0s8.33,2.53,9,7.25c.86,5.94,1.11,12-1.75,17.58s-7.13,8.65-13.69,8.64q-136.2-.09-272.41,0c-8.68,0-14.91-6.1-15.83-15.6a52.69,52.69,0,0,1,0-9c.42-5.62,3.92-8.8,9.56-8.87,4.61-.06,9.23-.16,13.84,0,3,.13,4.15-.76,4.14-4q-.16-39.3,0-78.58a4.7,4.7,0,0,0-2.74-4.73C18,259.42,14.43,251.18,16.64,243c2.3-8.54,9.34-13.86,18.54-13.91,9.61-.05,19.21-.1,28.81,0,2.95,0,4.06-.92,4.51-4,5.13-34.88,10.14-69.77,15.78-104.57C87.51,100.67,98.1,85,115.06,73.9c4.09-2.69,7.4-2.32,9.51.83s1.13,6.4-2.77,9.15c-1.41,1-2.83,2-5,3.51h72.64a57.92,57.92,0,0,0-27.22-12.07,56.61,56.61,0,0,0-20.8.52,16.35,16.35,0,0,1-3.35.27,5.52,5.52,0,0,1-5.73-4.89A5.29,5.29,0,0,1,135.91,65a22.37,22.37,0,0,1,6.89-1.6c3.67-.18,4.35-2,4.32-5.29-.16-16.22,0-32.43-.12-48.65,0-3.31.72-6.14,3.19-8.42ZM153.07,241.28H38.56a36.49,36.49,0,0,0-5.23.2c-3.27.47-5.16,2.94-5,6.35s1.84,5.39,5.13,5.91a32.6,32.6,0,0,0,4.85.14l140.33,0a24.29,24.29,0,0,1,5.2.33,5.6,5.6,0,0,1,4.74,5.88c0,3.24-1.87,5.08-4.83,5.78a19.55,19.55,0,0,1-4.47.25c-26.32,0-52.64.08-79-.06-3.66,0-4.63,1.15-4.61,4.7q.21,37.79,0,75.59c0,3.9,1.2,5,4.91,4.74a120.38,120.38,0,0,1,14.59,0c3.72.22,4.95-.86,4.9-4.76-.2-17.46-.12-34.92-.07-52.39,0-8.89,5.88-14.74,14.77-14.77,12,0,23.95,0,35.92,0,10.09,0,15.65,5.61,15.66,15.79,0,17.33.07,34.67-.05,52,0,3,.81,4.25,4,4.11,5.23-.22,10.49-.26,15.71,0,3.62.19,4.67-1,4.65-4.62q-.21-37.61,0-75.22c0-3.68-.64-5.47-4.86-5.25a5.75,5.75,0,0,1-6.45-5.78c-.1-3.59,2.31-6,6.44-6.3,1.24-.1,2.49,0,3.74,0h59.12a33.25,33.25,0,0,0,4.12-.11,6.24,6.24,0,0,0,0-12.33,37.47,37.47,0,0,0-4.86-.16Zm.28,121.53H19l-3.36,0a2.05,2.05,0,0,0-2.21,1.57c-1.48,4.73,1,8.34,5.8,8.34H287.16c4.6,0,5.61-1.36,5.92-6.13s-2.74-3.81-5.4-3.81ZM96.21,229.08c3.86,0,7.75-.28,11.58.07s5-1.18,5.4-4.69c1.17-12,2.53-24,3.81-36,2.14-20,4.21-40.1,6.46-60.13.31-2.71-.3-3.61-3-3.57-7.1.11-14.21.13-21.31,0-2.53,0-3.64,1-4,3.32-.7,4.93-1.42,9.86-2.23,14.77-.38,2.31.44,3.25,2.76,3.16a58.49,58.49,0,0,1,6.35,0,5.82,5.82,0,0,1,0,11.63,70.89,70.89,0,0,1-7.85,0c-2.4-.13-3.53.57-3.89,3.2-1.25,9.25-2.82,18.45-4.19,27.69-1,6.72-.93,6.73,6.12,7.07.62,0,1.24.07,1.86.16,4,.61,6.26,2.95,6.08,6.27s-2.7,5.57-6.62,5.72c-2.49.1-5,.1-7.48,0-2-.06-2.93.61-3.2,2.68q-1,8-2.41,15.88c-.36,2.07.33,2.73,2.28,2.71C87.24,229,91.72,229.07,96.21,229.08Zm114,0c4.49,0,9,0,13.46,0,2,0,2.63-.67,2.27-2.72q-1.39-7.91-2.43-15.87c-.27-2.1-1.26-2.74-3.2-2.68-2.49.08-5,.08-7.47,0-3.92-.15-6.44-2.39-6.61-5.73s2.09-5.73,6.09-6.23a51.64,51.64,0,0,1,6-.22c2,0,3-.78,2.62-3-1.68-10.7-3.36-21.4-4.88-32.12-.32-2.29-1.37-2.89-3.44-2.82-2.86.08-5.74.13-8.59-.07A5.81,5.81,0,0,1,204,146a60.24,60.24,0,0,1,6.72-.06c2.36.09,3.11-.91,2.73-3.19q-1.2-7.18-2.15-14.4c-.36-2.7-1.59-3.78-4.45-3.67-5.85.21-11.71.06-17.57.06-6.41,0-6.41,0-6,6.15.1,1.36.19,2.73.34,4.09q3.21,29.7,6.44,59.38c1.09,10.15,2.2,20.29,3.18,30.45.31,3.19,1.57,4.56,5,4.3C202.17,228.85,206.17,229.08,210.16,229.06Zm-35.58,92.4c0-8.48,0-16.95,0-25.43,0-4.15-1-5-5.1-5.07q-16.08,0-32.16,0c-4.63,0-5.49.81-5.5,5.42,0,17,0,33.91-.07,50.87,0,2.93.92,3.89,3.86,3.86q17.58-.21,35.16,0c2.92,0,3.94-.88,3.89-3.84C174.48,338.67,174.58,330.06,174.58,321.46ZM153.22,196.1c6.86,0,13.72-.13,20.57.06,3.15.09,4.25-1,3.9-4.1-1.15-10-2.18-20.05-3.23-30.07-.27-2.65-1.4-3.88-4.31-3.85-11.34.14-22.68.12-34,0-2.66,0-3.9,1-4.17,3.55-1.07,10.27-2.15,20.54-3.3,30.81-.32,2.88.92,3.68,3.63,3.63C139.26,196,146.24,196.1,153.22,196.1Zm0-83.08h47.87c7.19,0,7,.08,4-6.4-2.19-4.81-5-6.89-10.8-6.8-26.8.38-53.6.17-80.4.17-9.87,0-9.87,0-13.68,9.06-1.61,3.82-1.54,4,2.48,4Zm0,116.05c8.22,0,16.45-.08,24.67.05,2.77,0,3.9-.86,3.53-3.69-.6-4.69-1.08-9.39-1.54-14.1-.26-2.59-1.5-3.54-4.17-3.52q-22.42.16-44.86,0c-2.92,0-4,1.14-4.26,3.84-.41,4.46-.85,8.92-1.48,13.35-.44,3.13.63,4.21,3.81,4.14C137,229,145.05,229.07,153.15,229.07ZM40.41,308.65c0,11.47,0,22.93,0,34.4.06,9.25-1.3,7.89,7.82,8,5.18.06,5.19,0,5.19-5.05,0-23.68.06-47.36,0-71.05,0-10.18,1.65-8.54-8.95-8.83-3.05-.08-4.15.87-4.11,4C40.5,283,40.41,295.81,40.41,308.65Zm225.54.4c0-11.47.07-22.94,0-34.4-.08-9.78,1.56-8.21-8.48-8.56-3.7-.13-4.62,1.2-4.6,4.72.13,23.68.07,47.36.07,71,0,9.39,0,9.26,9.29,9.27,3,0,3.82-1.07,3.79-3.93C265.88,334.47,266,321.76,266,309.05ZM153.31,146c5.22,0,10.44-.08,15.66,0,2.52.06,3.75-.71,3.42-3.42-.58-4.93-1.06-9.87-1.58-14.81-.21-2.05-1.19-3.06-3.4-3q-14.17.1-28.35,0c-2.41,0-3.33,1.11-3.55,3.3-.47,4.7-.91,9.4-1.52,14.07-.38,2.95.65,4,3.65,3.93C142.86,145.85,148.09,146,153.31,146ZM183.38,13.23l-.22-.73c-6.95,0-13.91,0-20.86,0-2,0-3,.7-3,2.81.05,4.23,0,8.46,0,12.7,0,2.18.62,2.79,2.56,1.33C169,23.93,176.21,18.59,183.38,13.23Zm-108.85,266c2,0,4,0,6,0,4.29,0,3.22-3.33,2.9-5.37-.43-2.64,2.64-7.1-2.94-7.59-3.58-.31-7.22.1-10.81-.11-3.21-.2-4.06,1.21-4,4.17C65.9,280.93,64.43,279,74.53,279.18Zm157.23-13c-10.13.21-8.83-1.73-8.93,9.24,0,.25,0,.5,0,.75-.13,2.22.92,3.12,3.14,3.06,3.6-.09,7.22-.17,10.81,0,2.92.15,4-.91,3.91-3.85C240.46,264.43,242,266.37,231.76,266.16ZM74.9,291c-2.12,0-4.23,0-6.35,0-3.76-.05-3.16,2.92-2.72,4.77.65,2.79-2.82,7.34,2.71,8.15,3.53.51,7.21-.07,10.81.16,3.34.22,4.31-1.14,4.24-4.33C83.35,289.29,84.64,291.15,74.9,291Zm156.86,0c-10.14.23-8.82-1.88-8.93,9.2,0,.25,0,.5,0,.75-.12,2.21.93,3.13,3.13,3.09,3.61-.08,7.22-.15,10.82,0,2.91.14,4-.93,3.91-3.87C240.47,289.08,241.94,291.18,231.76,291Zm-157,37.91v0c2,0,4,0,6,0,2.4,0,3.14-1.58,2.73-3.46-.65-3,2.11-6.78-1.94-9a1.57,1.57,0,0,0-.73-.08c-4.11,0-8.21,0-12.31,0-1.83,0-2.58.84-2.79,2.69-1,9.5-.72,9.91,8.7,9.91Zm157.29-12.62c-10.31.25-9.19-2-9.21,9.35,0,.13,0,.25,0,.38,0,2,1.06,2.88,3,2.87,3.85,0,7.71-.06,11.56,0,2.45.05,3.26-1.14,3.23-3.44C240.57,314.49,241.74,316.45,232.05,316.24ZM74.58,351.05c1.74,0,3.49-.11,5.22,0,2.69.21,4-.81,3.75-3.6a25,25,0,0,1,0-3.35c.1-2.22-.92-3.14-3.13-3.08-3.23.09-6.46,0-9.69,0-5,0-5,0-5,4.88,0,5.09,0,5.09,5.16,5.1Zm157.21-10h-2.61c-6.69,0-6.78.17-6.38,6.94.13,2.19.93,3.13,3.16,3.07,3.22-.09,6.46,0,9.68,0,5,0,5,0,5-4.86,0-5.11,0-5.11-5.15-5.12Z" fill="#1cc0e4"/></g></g></svg>